<?xml version="1.0" encoding="UTF-8" standalone="no"?>
<!-- Created with Inkscape (http://www.inkscape.org/) -->

<svg width="16" height="16" viewBox="0 0 16 16.000001" version="1.1" id="svg1" inkscape:version="1.4 (e7c3feb100, 2024-10-09)" sodipodi:docname="project_icon.svg" xmlns:inkscape="http://www.inkscape.org/namespaces/inkscape" xmlns:sodipodi="http://sodipodi.sourceforge.net/DTD/sodipodi-0.dtd" xmlns="http://www.w3.org/2000/svg" xmlns:svg="http://www.w3.org/2000/svg">
    <sodipodi:namedview id="namedview1" pagecolor="#ffffff" bordercolor="#000000" borderopacity="0.25" inkscape:showpageshadow="2" inkscape:pageopacity="0.0" inkscape:pagecheckerboard="0" inkscape:deskcolor="#d1d1d1" inkscape:document-units="px" showgrid="false" inkscape:zoom="1" inkscape:cx="6" inkscape:cy="10.5" inkscape:window-width="1280" inkscape:window-height="656" inkscape:window-x="0" inkscape:window-y="0" inkscape:window-maximized="1" inkscape:current-layer="layer1">
        <inkscape:grid id="grid1" units="px" originx="0" originy="0" spacingx="1" spacingy="1" empcolor="#0099e5" empopacity="0.30196078" color="#0099e5" opacity="0.14901961" empspacing="1" enabled="true" visible="false" />
        <inkscape:grid id="grid2" units="px" originx="0" originy="0" spacingx="0.50000001" spacingy="0.49999999" empcolor="#0099e5" empopacity="0.30196078" color="#0099e5" opacity="0.14901961" empspacing="1" enabled="true" visible="false" dotted="true" />
    </sodipodi:namedview>
    <defs id="defs1">
        <filter style="color-interpolation-filters:sRGB" inkscape:label="Silhouette" id="filter14" x="-0.023818182" y="-0.038946476" width="1.0520622" height="1.0729419">
            <feFlood flood-opacity="0.501961" flood-color="rgb(0,0,0)" result="flood" id="feFlood14" />
            <feComposite in="flood" in2="SourceGraphic" operator="in" result="composite" id="feComposite14" />
            <feGaussianBlur stdDeviation="0.01" id="feGaussianBlur14" />
        </filter>
    </defs>
    <g inkscape:label="Layer 1" inkscape:groupmode="layer" id="layer1">
        <g id="g1" transform="matrix(0.64811576,0,0,0.64368813,0.19105762,0.4477125)" style="stroke-width:1.54823">
            <path style="opacity:0.5;fill:#000000;stroke:#000000;stroke-width:1.54823;stroke-dashoffset:3.33335;paint-order:markers fill stroke" d="m 1.5,12.499999 5,-5.9999993 7,1 5,-1.9999999 5,6.0000002 -1,3.999999 1,4 -6,2 -6,-1 -6,1 -4,-2 z" id="path2" />
            <path style="fill:#55ddff;stroke:#000000;stroke-width:1.54823;stroke-dashoffset:3.33335;paint-order:markers fill stroke" d="m 0.50166312,11.512633 4.86931218,-5.839779 6.8170367,0.9732966 4.869313,-1.9465931 4.869312,5.8397795 -0.973863,3.893186 0.973863,3.893186 -5.843175,1.946594 -5.843174,-0.973297 -5.8431751,0.973297 -3.89544978,-1.946594 z" id="path15" />
            <path d="M 16.908963,5.2831555 12.248879,7.1461061 5.5706932,6.19372 0.98859434,11.689425 v 6.335932 l 3.48460156,1.741289 5.7670921,-0.961892 5.80323,0.967594 5.301084,-1.766001 -0.893975,-3.573823 0.943429,-3.771525 z" style="fill:#55ddff;stroke-width:1.54823;stroke-dashoffset:3.33335;paint-order:markers fill stroke" id="path7" />
            <path style="fill:#f9f9f9;stroke:none;stroke-width:1.54823;stroke-dashoffset:3.33335;paint-order:markers fill stroke" d="M 4.4852501,19.766646 3.5987088,19.439887 C 5.4220595,11.46186 5.8769476,3.1883256 5.8769476,3.1883256 c 0,0 10.9648214,0.7767736 13.8864084,0.7767736 0,0 -2.130799,11.1897158 -3.046662,15.5737808 l -0.617807,0.240845 -5.864356,-0.977036 z" id="path3" sodipodi:nodetypes="cccccccc" />
            <path style="fill:none;stroke:#000000;stroke-width:1.54823;stroke-dashoffset:3.33335;paint-order:markers fill stroke" d="M 3.5625463,19.500572 C 5.9972024,10.740903 5.8769476,3.1883256 5.8769476,3.1883256 c 0,0 10.9648214,0.7767736 13.8864084,0.7767736 0,0 -2.314402,13.2051518 -2.314402,16.3122468" id="path8" sodipodi:nodetypes="cccc" />
            <path style="fill:none;stroke:#000000;stroke-width:1.54823;stroke-dashoffset:3.33335;paint-order:markers fill stroke" d="m 7.2676971,11.82183 3.4808579,-5.6418118 1.361563,0.2670163 -0.80707,5.3103665" id="path9" sodipodi:nodetypes="cccc" />
            <path style="fill:none;stroke:#000000;stroke-width:1.54823;stroke-dashoffset:3.33335;paint-order:markers fill stroke" d="M 8.7432819,9.766013 10.99719,10.227189" id="path10" sodipodi:nodetypes="cc" />
            <path style="fill:none;stroke:#000000;stroke-width:1.54823;stroke-dashoffset:3.33335;paint-order:markers fill stroke" d="m 13.583177,10.962326 c 2.434656,0 1.433621,-0.01926 2.769566,-0.02412" id="path11" sodipodi:nodetypes="cc" />
            <path style="fill:none;stroke:#000000;stroke-width:1.54823;stroke-dashoffset:3.33335;paint-order:markers fill stroke" d="m 7.5356754,13.871887 c 5.0378406,0 5.8422786,-0.03964 8.1525246,0.196523" id="path13" sodipodi:nodetypes="cc" />
            <path style="fill:none;stroke:#000000;stroke-width:1.54823;stroke-dashoffset:3.33335;paint-order:markers fill stroke" d="m 7.0969608,17.00908 c 2.9215872,0 4.0159922,0.0266 7.9114422,0.0266" id="path14" sodipodi:nodetypes="cc" />
        </g>
    </g>
</svg>
