<?xml version="1.0" encoding="utf-8"?>
<svg width="672" height="293" viewBox="0 0 672 293" fill="none" xmlns="http://www.w3.org/2000/svg">
  <g>
    <rect width="672" height="293" fill="#393939" fill-rule="evenodd" />
    <g transform="translate(10 11)">
      <g>
        <g>
          <g>
            <rect width="69.5" height="40" fill="#505050" fill-rule="evenodd" />
            <path d="M6.90088 9.18326Q6.90088 9.50455 6.87354 9.84293L2.17041 9.84293Q2.25244 11.0597 2.78564 11.6339Q3.31885 12.2082 4.15967 12.2082Q4.68945 12.2082 5.13721 12.0544Q5.58496 11.9005 6.07715 11.5656L6.6377 12.3346Q5.4585 13.2575 4.06055 13.2575Q2.51904 13.2575 1.65771 12.2492Q0.796387 11.2409 0.796387 9.47721Q0.796387 8.32877 1.16895 7.4401Q1.5415 6.55143 2.23193 6.04898Q2.92578 5.54313 3.8623 5.54313Q5.33545 5.54313 6.11816 6.51041Q6.90088 7.4777 6.90088 9.18326ZM5.62939 8.80729Q5.62939 7.71354 5.19531 7.13932Q4.76123 6.5651 3.89307 6.5651Q2.31055 6.5651 2.17041 8.88932L5.62939 8.88932L5.62939 8.80729ZM10.9625 5.54313Q11.7179 5.54313 12.3195 5.75504Q12.921 5.96354 13.4679 6.38395L12.921 7.19742Q12.4186 6.87271 11.964 6.71891Q11.5094 6.5651 11.0035 6.5651Q10.3746 6.5651 10.0089 6.82486Q9.6466 7.08463 9.6466 7.53238Q9.6466 7.98014 9.9884 8.23307Q10.3336 8.48258 11.2291 8.72184Q12.4596 9.02945 13.068 9.56266Q13.6764 10.0924 13.6764 11.0187Q13.6764 12.109 12.8287 12.6833Q11.9845 13.2575 10.7677 13.2575Q9.08605 13.2575 7.97863 12.2936L8.66564 11.5075Q9.60559 12.2218 10.7369 12.2218Q11.465 12.2218 11.8922 11.9211Q12.3195 11.6203 12.3195 11.1007Q12.3195 10.7248 12.1656 10.4958Q12.0118 10.2633 11.6324 10.089Q11.2565 9.91129 10.5284 9.71646Q9.35266 9.40885 8.82629 8.89273Q8.30334 8.3732 8.30334 7.5734Q8.30334 6.99918 8.64514 6.53092Q8.98693 6.06266 9.59533 5.80289Q10.2071 5.54313 10.9625 5.54313ZM18.1875 5.54313Q18.8438 5.54313 19.3907 5.73453Q19.9375 5.92252 20.44 6.34293L19.8247 7.15299Q19.4317 6.87271 19.0591 6.74283Q18.69 6.60953 18.2422 6.60953Q17.3467 6.60953 16.8477 7.32389Q16.3521 8.03482 16.3521 9.43619Q16.3521 10.8376 16.8409 11.5041Q17.333 12.1671 18.2422 12.1671Q18.6763 12.1671 19.0386 12.0338Q19.4043 11.9005 19.8521 11.6066L20.44 12.4474Q19.4317 13.2575 18.1875 13.2575Q16.687 13.2575 15.8257 12.2492Q14.9644 11.2409 14.9644 9.46354Q14.9644 8.28775 15.3575 7.40592Q15.7505 6.52408 16.4717 6.03531Q17.1929 5.54313 18.1875 5.54313Z" fill="#F0F0F0" transform="translate(24.25 11.5)" />
          </g>
          <g transform="translate(75.5 0)">
            <rect width="40" height="40" fill="#505050" fill-rule="evenodd" />
            <path d="M1.40137 13.09L1.40137 3.44449L6.5249 3.44449L6.37109 4.50748L2.73096 4.50748L2.73096 7.79898L5.87891 7.79898L5.87891 8.8483L2.73096 8.8483L2.73096 13.09L1.40137 13.09ZM10.976 3.72477L10.976 13.09L9.6874 13.09L9.6874 5.09537L7.50332 6.42496L6.94277 5.51578L9.84121 3.72477L10.976 3.72477Z" fill="#F0F0F0" transform="translate(13.5 11.5)" />
          </g>
          <g transform="translate(121.5 0)">
            <rect width="40" height="40" fill="#505050" fill-rule="evenodd" />
            <path d="M1.40137 13.09L1.40137 3.44449L6.5249 3.44449L6.37109 4.50748L2.73096 4.50748L2.73096 7.79898L5.87891 7.79898L5.87891 8.8483L2.73096 8.8483L2.73096 13.09L1.40137 13.09ZM9.92638 3.58463Q10.7672 3.58463 11.4029 3.91959Q12.0387 4.25455 12.3873 4.83561Q12.7394 5.41666 12.7394 6.14469Q12.7394 6.99918 12.3531 7.78531Q11.9703 8.56803 11.1705 9.47721Q10.3741 10.3864 8.7506 12.0133L12.965 12.0133L12.8111 13.09L7.28088 13.09L7.28088 12.068Q9.15734 10.1232 9.94005 9.22086Q10.7228 8.3151 11.0577 7.64518Q11.3961 6.97184 11.3961 6.20279Q11.3961 5.47477 10.9757 5.06119Q10.5553 4.64762 9.85461 4.64762Q9.28039 4.64762 8.8463 4.88688Q8.41564 5.12271 7.92345 5.66959L7.08263 4.99967Q7.65685 4.28531 8.35754 3.93668Q9.05822 3.58463 9.92638 3.58463Z" fill="#F0F0F0" transform="translate(13 11.5)" />
          </g>
          <g transform="translate(167.5 0)">
            <rect width="40" height="40" fill="#505050" fill-rule="evenodd" />
            <path d="M1.40137 13.09L1.40137 3.44449L6.5249 3.44449L6.37109 4.50748L2.73096 4.50748L2.73096 7.79898L5.87891 7.79898L5.87891 8.8483L2.73096 8.8483L2.73096 13.09L1.40137 13.09ZM10.0254 3.58463Q10.8935 3.58463 11.5156 3.90592Q12.1377 4.22721 12.4658 4.77408Q12.7973 5.32096 12.7973 5.96354Q12.7973 6.81803 12.2983 7.37174Q11.8027 7.92545 10.9756 8.12027Q11.9155 8.2023 12.5034 8.79361Q13.0913 9.3815 13.0913 10.3864Q13.0913 11.1999 12.6982 11.8595Q12.3052 12.5158 11.5771 12.8883Q10.8491 13.2575 9.8989 13.2575Q9.04441 13.2575 8.33006 12.943Q7.6157 12.6286 7.0825 11.9997L7.85496 11.2853Q8.31638 11.7604 8.79832 11.986Q9.28367 12.2082 9.85447 12.2082Q10.7363 12.2082 11.2387 11.7126Q11.7446 11.2135 11.7446 10.3727Q11.7446 9.44986 11.2695 9.07389Q10.7944 8.69449 9.88523 8.69449L9.18455 8.69449L9.33836 7.69986L9.81345 7.69986Q10.5415 7.69986 11.0234 7.26578Q11.5088 6.8317 11.5088 6.04898Q11.5088 5.38932 11.0884 5.0065Q10.6679 4.62027 9.95359 4.62027Q9.40672 4.62027 8.95213 4.81852Q8.49754 5.01334 8.02244 5.46109L7.3491 4.68863Q8.53855 3.58463 10.0254 3.58463Z" fill="#F0F0F0" transform="translate(13 11.5)" />
          </g>
          <g transform="translate(213.5 0)">
            <rect width="40" height="40" fill="#505050" fill-rule="evenodd" />
            <path d="M1.40137 13.09L1.40137 3.44449L6.5249 3.44449L6.37109 4.50748L2.73096 4.50748L2.73096 7.79898L5.87891 7.79898L5.87891 8.8483L2.73096 8.8483L2.73096 13.09L1.40137 13.09ZM13.3413 9.75748L13.3413 10.7795L12.1245 10.7795L12.1245 13.09L10.877 13.09L10.877 10.7795L6.87455 10.7795L6.87455 9.8566L9.68754 3.58463L10.7676 4.03238L8.23148 9.75748L10.8907 9.75748L11.0035 7.23844L12.1245 7.23844L12.1245 9.75748L13.3413 9.75748Z" fill="#F0F0F0" transform="translate(13 11.5)" />
          </g>
          <g transform="translate(259.5 0)">
            <rect width="40" height="40" fill="#505050" fill-rule="evenodd" />
            <path d="M1.40137 13.09L1.40137 3.44449L6.5249 3.44449L6.37109 4.50748L2.73096 4.50748L2.73096 7.79898L5.87891 7.79898L5.87891 8.8483L2.73096 8.8483L2.73096 13.09L1.40137 13.09ZM12.4729 4.73307L8.8191 4.73307L8.8191 7.49137Q9.53345 7.12564 10.3196 7.12564Q11.5227 7.12564 12.2507 7.91861Q12.9788 8.70816 12.9788 10.0924Q12.9788 11.0187 12.572 11.7399Q12.1653 12.4611 11.4304 12.861Q10.6956 13.2575 9.7317 13.2575Q8.8772 13.2575 8.20386 12.9567Q7.53052 12.6559 6.95631 12.068L7.71509 11.3263Q8.16285 11.7741 8.63795 11.9928Q9.11304 12.2082 9.71461 12.2082Q10.6135 12.2082 11.1228 11.6476Q11.6355 11.0871 11.6355 10.0651Q11.6355 9.04313 11.1707 8.5817Q10.7092 8.12027 9.92652 8.12027Q9.5608 8.12027 9.25318 8.19889Q8.94556 8.27408 8.59693 8.44156L7.58863 8.44156L7.58863 3.72477L12.6575 3.72477L12.4729 4.73307Z" fill="#F0F0F0" transform="translate(13 11.5)" />
          </g>
          <g transform="translate(305.5 0)">
            <rect width="40" height="40" fill="#505050" fill-rule="evenodd" />
            <path d="M1.40137 13.09L1.40137 3.44449L6.5249 3.44449L6.37109 4.50748L2.73096 4.50748L2.73096 7.79898L5.87891 7.79898L5.87891 8.8483L2.73096 8.8483L2.73096 13.09L1.40137 13.09ZM10.9775 6.93082Q11.6884 6.93082 12.2763 7.26578Q12.8676 7.60074 13.2162 8.27408Q13.5649 8.94742 13.5649 9.91129Q13.5649 10.9059 13.165 11.6681Q12.7685 12.4303 12.0883 12.8439Q11.4116 13.2575 10.5844 13.2575Q8.9472 13.2575 8.18841 12.0475Q7.43304 10.8376 7.43304 8.69449Q7.43304 7.16666 7.86029 6.0148Q8.28753 4.85953 9.08392 4.22379Q9.88373 3.58463 10.9775 3.58463Q12.0405 3.58463 12.9086 4.15885L12.4028 5.01334Q11.7465 4.6066 10.9604 4.6066Q9.9555 4.6066 9.36419 5.57389Q8.7763 6.53775 8.72162 8.16129Q9.58978 6.93082 10.9775 6.93082ZM10.5844 12.2355Q11.3945 12.2355 11.8286 11.6203Q12.2626 11.005 12.2626 9.9523Q12.2626 7.95279 10.7519 7.95279Q10.1367 7.95279 9.61712 8.29459Q9.10101 8.63639 8.73529 9.24137Q8.7763 10.7795 9.21722 11.5075Q9.66156 12.2355 10.5844 12.2355Z" fill="#F0F0F0" transform="translate(12.5 11.5)" />
          </g>
          <g transform="translate(351.5 0)">
            <rect width="40" height="40" fill="#505050" fill-rule="evenodd" />
            <path d="M1.40137 13.09L1.40137 3.44449L6.5249 3.44449L6.37109 4.50748L2.73096 4.50748L2.73096 7.79898L5.87891 7.79898L5.87891 8.8483L2.73096 8.8483L2.73096 13.09L1.40137 13.09ZM12.6709 3.72477L12.6709 4.68863L9.17088 13.2301L7.99509 12.8371L11.3686 4.77408L7.22263 4.77408L7.22263 3.72477L12.6709 3.72477Z" fill="#F0F0F0" transform="translate(13 11.5)" />
          </g>
          <g transform="translate(397.5 0)">
            <rect width="40" height="40" fill="#505050" fill-rule="evenodd" />
            <path d="M1.40137 13.09L1.40137 3.44449L6.5249 3.44449L6.37109 4.50748L2.73096 4.50748L2.73096 7.79898L5.87891 7.79898L5.87891 8.8483L2.73096 8.8483L2.73096 13.09L1.40137 13.09ZM10.2205 3.58463Q11.7039 3.58463 12.4729 4.55875Q13.2454 5.52945 13.2454 7.22477Q13.2454 9.14225 12.7258 10.3112Q12.2063 11.4801 11.1433 12.174Q10.0803 12.8644 8.25855 13.3976L7.96461 12.4303Q9.84107 11.9005 10.8425 10.9914Q11.844 10.0788 11.9124 8.56803Q11.5911 9.07047 11.0442 9.3815Q10.5007 9.68912 9.81373 9.68912Q9.0857 9.68912 8.49781 9.31998Q7.90992 8.94742 7.5647 8.26725Q7.22291 7.58707 7.22291 6.67789Q7.22291 5.7277 7.62964 5.02701Q8.03638 4.32633 8.71314 3.95719Q9.39332 3.58463 10.2205 3.58463ZM10.0803 8.68082Q11.1843 8.68082 11.9431 7.51871Q11.9705 5.96354 11.5569 5.28678Q11.1433 4.6066 10.2478 4.6066Q9.42066 4.6066 8.97291 5.15348Q8.52515 5.69693 8.52515 6.70523Q8.52515 7.68619 8.94556 8.18521Q9.36597 8.68082 10.0803 8.68082Z" fill="#F0F0F0" transform="translate(13 11.5)" />
          </g>
          <g transform="translate(443.5 0)">
            <rect width="40" height="40" fill="#505050" fill-rule="evenodd" />
            <path d="M1.40137 13.09L1.40137 3.44449L6.5249 3.44449L6.37109 4.50748L2.73096 4.50748L2.73096 7.79898L5.87891 7.79898L5.87891 8.8483L2.73096 8.8483L2.73096 13.09L1.40137 13.09ZM10.976 3.72477L10.976 13.09L9.6874 13.09L9.6874 5.09537L7.50332 6.42496L6.94277 5.51578L9.84121 3.72477L10.976 3.72477ZM16.4227 3.58463Q17.9745 3.58463 18.764 4.82535Q19.557 6.06266 19.557 8.41422Q19.557 10.7658 18.764 12.0133Q17.9745 13.2575 16.4227 13.2575Q14.8676 13.2575 14.0746 12.0133Q13.285 10.7658 13.285 8.41422Q13.285 6.06266 14.0746 4.82535Q14.8676 3.58463 16.4227 3.58463ZM16.4227 4.6066Q15.5136 4.6066 15.0692 5.50211Q14.6283 6.39762 14.6283 8.41422Q14.6283 10.4308 15.0692 11.3332Q15.5136 12.2355 16.4227 12.2355Q17.3182 12.2355 17.766 11.3332Q18.2138 10.4308 18.2138 8.41422Q18.2138 6.41129 17.766 5.50895Q17.3182 4.6066 16.4227 4.6066Z" fill="#F0F0F0" transform="translate(9.5 11.5)" />
          </g>
          <g transform="translate(489.5 0)">
            <rect width="40" height="40" fill="#505050" fill-rule="evenodd" />
            <path d="M1.40137 13.09L1.40137 3.44449L6.5249 3.44449L6.37109 4.50748L2.73096 4.50748L2.73096 7.79898L5.87891 7.79898L5.87891 8.8483L2.73096 8.8483L2.73096 13.09L1.40137 13.09ZM10.976 3.72477L10.976 13.09L9.6874 13.09L9.6874 5.09537L7.50332 6.42496L6.94277 5.51578L9.84121 3.72477L10.976 3.72477ZM16.842 3.72477L16.842 13.09L15.5534 13.09L15.5534 5.09537L13.3693 6.42496L12.8088 5.51578L15.7072 3.72477L16.842 3.72477Z" fill="#F0F0F0" transform="translate(10.5 11.5)" />
          </g>
          <g transform="translate(535.5 0)">
            <rect width="40" height="40" fill="#505050" fill-rule="evenodd" />
            <path d="M1.40137 13.09L1.40137 3.44449L6.5249 3.44449L6.37109 4.50748L2.73096 4.50748L2.73096 7.79898L5.87891 7.79898L5.87891 8.8483L2.73096 8.8483L2.73096 13.09L1.40137 13.09ZM10.976 3.72477L10.976 13.09L9.6874 13.09L9.6874 5.09537L7.50332 6.42496L6.94277 5.51578L9.84121 3.72477L10.976 3.72477ZM15.7084 3.58463Q16.5492 3.58463 17.1849 3.91959Q17.8207 4.25455 18.1693 4.83561Q18.5214 5.41666 18.5214 6.14469Q18.5214 6.99918 18.1351 7.78531Q17.7523 8.56803 16.9525 9.47721Q16.1561 10.3864 14.5326 12.0133L18.747 12.0133L18.5931 13.09L13.0629 13.09L13.0629 12.068Q14.9393 10.1232 15.7221 9.22086Q16.5048 8.3151 16.8397 7.64518Q17.1781 6.97184 17.1781 6.20279Q17.1781 5.47477 16.7577 5.06119Q16.3373 4.64762 15.6366 4.64762Q15.0624 4.64762 14.6283 4.88688Q14.1976 5.12271 13.7055 5.66959L12.8646 4.99967Q13.4389 4.28531 14.1395 3.93668Q14.8402 3.58463 15.7084 3.58463Z" fill="#F0F0F0" transform="translate(10 11.5)" />
          </g>
          <g transform="translate(581.5 0)">
            <rect width="69.5" height="40" fill="#505050" fill-rule="evenodd" />
            <path d="M4.89575 5.52095L5.41138 5.52095L5.41138 8.8L0.44043 8.8L0.44043 5.52095L0.945312 5.52095L0.945312 5.19331Q0.945312 4.34468 1.52271 3.77803Q2.1001 3.21138 2.92456 3.21138Q3.75171 3.21138 4.32373 3.77803Q4.89575 4.34468 4.89575 5.19331L4.89575 5.52095ZM1.45288 5.52095L4.38818 5.52095L4.38818 5.1584Q4.38818 4.57563 3.94775 4.154Q3.51001 3.72969 2.91382 3.72969Q2.29883 3.72969 1.87451 4.13252Q1.45288 4.53267 1.45288 5.1584L1.45288 5.52095Z" fill="#F0F0F0" transform="translate(31.75 14)" />
          </g>
        </g>
        <g transform="translate(0 46)">
          <g>
            <rect width="30" height="40" fill="#505050" fill-rule="evenodd" />
            <g transform="translate(11.5 3)">
              <path d="M4.46729 9.59Q4.06055 9.59 3.75977 9.4567Q3.45898 9.3234 3.03857 9.0568Q2.78564 8.88932 2.61816 8.80729Q2.45068 8.72184 2.2832 8.72184Q1.73633 8.72184 1.2749 9.47721L0.48877 9.07047Q1.18945 7.71354 2.40967 7.71354Q2.79932 7.71354 3.09326 7.84Q3.38721 7.96646 3.78027 8.21939Q4.06055 8.40055 4.23486 8.486Q4.40918 8.56803 4.59033 8.56803Q4.8877 8.56803 5.13721 8.38004Q5.39014 8.18863 5.57129 7.89469L6.34033 8.3151Q5.68408 9.59 4.46729 9.59Z" fill="#F0F0F0" />
              <path d="M0.994629 1.87564L3.78027 3.47184L3.38721 4.15885L0.42041 2.95572L0.994629 1.87564Z" transform="translate(0 16.8)" fill="#F0F0F0" />
            </g>
          </g>
          <g transform="translate(36 0)">
            <rect width="40" height="40" fill="#505050" fill-rule="evenodd" />
            <g transform="translate(16.5 3)">
              <path d="M2.37891 3.44449L2.23877 9.87027L1.10742 9.87027L0.953613 3.44449L2.37891 3.44449ZM1.68164 11.3127Q2.09863 11.3127 2.37891 11.5929Q2.65918 11.8732 2.65918 12.2765Q2.65918 12.6833 2.37891 12.9704Q2.09863 13.2575 1.68164 13.2575Q1.2749 13.2575 0.994629 12.9704Q0.714355 12.6833 0.714355 12.2765Q0.714355 11.8732 0.994629 11.5929Q1.2749 11.3127 1.68164 11.3127Z" fill="#F0F0F0" />
              <path d="M4.52197 3.72477L4.52197 13.09L3.2334 13.09L3.2334 5.09537L1.04932 6.42496L0.48877 5.51578L3.38721 3.72477L4.52197 3.72477Z" transform="translate(0 16.8)" fill="#F0F0F0" />
            </g>
          </g>
          <g transform="translate(82 0)">
            <rect width="40" height="40" fill="#505050" fill-rule="evenodd" />
            <g transform="translate(12.5 3)">
              <path d="M7.3623 3.27701Q9.23877 3.27701 10.582 4.02555Q11.9287 4.77408 12.6123 6.03531Q13.2993 7.29313 13.2993 8.79361Q13.2993 10.612 12.5986 11.7878Q11.9014 12.9635 10.541 12.9635Q9.7583 12.9635 9.31738 12.5295Q8.87646 12.0954 8.75 11.5212Q8.4834 12.1364 7.98438 12.5363Q7.48877 12.9362 6.7334 12.9362Q5.6123 12.9362 4.96289 12.0954Q4.31348 11.2546 4.31348 9.8566Q4.31348 8.09293 5.15088 7.14957Q5.9917 6.20279 7.3623 6.20279Q7.95361 6.20279 8.46973 6.32926Q8.98926 6.4523 9.56348 6.76334L9.56348 10.3864Q9.56348 11.2546 9.79932 11.6134Q10.0386 11.9689 10.5137 11.9689Q11.9971 11.9689 11.9971 8.82096Q11.9971 7.46061 11.4639 6.45572Q10.9341 5.44742 9.89844 4.89371Q8.86279 4.34 7.3623 4.34Q5.82422 4.34 4.66895 5.03385Q3.51367 5.7277 2.89844 6.95133Q2.2832 8.17496 2.2832 9.73014Q2.2832 11.2853 2.87793 12.4816Q3.47266 13.6779 4.62109 14.341Q5.76953 15.0075 7.3623 15.0075Q8.69531 15.0075 10.0522 14.5324L10.4009 15.527Q9.61816 15.8073 8.92432 15.9372Q8.23047 16.0705 7.34863 16.0705Q5.47559 16.0705 4.0332 15.2946Q2.59082 14.5187 1.78418 13.0763Q0.980957 11.6339 0.980957 9.73014Q0.980957 7.90836 1.78418 6.43863Q2.59082 4.96891 4.04688 4.12467Q5.50293 3.27701 7.3623 3.27701ZM6.88721 11.9997Q7.93652 11.9997 8.40137 10.7931L8.40137 7.33756Q7.93652 7.12564 7.40674 7.12564Q5.57129 7.12564 5.57129 9.8566Q5.57129 10.9059 5.90625 11.4528Q6.24463 11.9997 6.88721 11.9997Z" fill="#F0F0F0" />
              <path d="M3.19238 3.58463Q4.0332 3.58463 4.66895 3.91959Q5.30469 4.25455 5.65332 4.83561Q6.00537 5.41666 6.00537 6.14469Q6.00537 6.99918 5.61914 7.78531Q5.23633 8.56803 4.43652 9.47721Q3.64014 10.3864 2.0166 12.0133L6.23096 12.0133L6.07715 13.09L0.546875 13.09L0.546875 12.068Q2.42334 10.1232 3.20605 9.22086Q3.98877 8.3151 4.32373 7.64518Q4.66211 6.97184 4.66211 6.20279Q4.66211 5.47477 4.2417 5.06119Q3.82129 4.64762 3.12061 4.64762Q2.54639 4.64762 2.1123 4.88688Q1.68164 5.12271 1.18945 5.66959L0.348633 4.99967Q0.922852 4.28531 1.62354 3.93668Q2.32422 3.58463 3.19238 3.58463Z" transform="translate(0 16.8)" fill="#F0F0F0" />
            </g>
          </g>
          <g transform="translate(128 0)">
            <rect width="40" height="40" fill="#505050" fill-rule="evenodd" />
            <g transform="translate(16 3)">
              <path d="M7.04102 6.8317L5.97803 6.8317L5.58496 9.84293L6.5249 9.84293L6.5249 10.8068L5.44482 10.8068L5.15088 13.09L4.06055 13.09L4.35449 10.8068L2.19775 10.8068L1.90381 13.09L0.813477 13.09L1.10742 10.8068L0.208496 10.8068L0.208496 9.84293L1.24756 9.84293L1.63721 6.8317L0.728027 6.8317L0.728027 5.85074L1.76367 5.85074L2.04395 3.72477L3.1377 3.72477L2.85742 5.85074L5.01074 5.85074L5.29102 3.72477L6.38477 3.72477L6.10449 5.85074L7.04102 5.85074L7.04102 6.8317ZM4.49463 9.84293L4.8877 6.8317L2.73096 6.8317L2.33789 9.84293L4.49463 9.84293Z" fill="#F0F0F0" />
              <path d="M3.15137 3.58463Q4.01953 3.58463 4.6416 3.90592Q5.26367 4.22721 5.5918 4.77408Q5.92334 5.32096 5.92334 5.96354Q5.92334 6.81803 5.42432 7.37174Q4.92871 7.92545 4.10156 8.12027Q5.0415 8.2023 5.62939 8.79361Q6.21729 9.3815 6.21729 10.3864Q6.21729 11.1999 5.82422 11.8595Q5.43115 12.5158 4.70312 12.8883Q3.9751 13.2575 3.0249 13.2575Q2.17041 13.2575 1.45605 12.943Q0.741699 12.6286 0.208496 11.9997L0.980957 11.2853Q1.44238 11.7604 1.92432 11.986Q2.40967 12.2082 2.98047 12.2082Q3.8623 12.2082 4.36475 11.7126Q4.87061 11.2135 4.87061 10.3727Q4.87061 9.44986 4.39551 9.07389Q3.92041 8.69449 3.01123 8.69449L2.31055 8.69449L2.46436 7.69986L2.93945 7.69986Q3.66748 7.69986 4.14941 7.26578Q4.63477 6.8317 4.63477 6.04898Q4.63477 5.38932 4.21436 5.0065Q3.79395 4.62027 3.07959 4.62027Q2.53271 4.62027 2.07812 4.81852Q1.62354 5.01334 1.14844 5.46109L0.475098 4.68863Q1.66455 3.58463 3.15137 3.58463Z" transform="translate(0 16.8)" fill="#F0F0F0" />
            </g>
          </g>
          <g transform="translate(174 0)">
            <rect width="40" height="40" fill="#505050" fill-rule="evenodd" />
            <g transform="translate(16 3)">
              <path d="M6.87354 10.4855Q6.87354 11.5485 6.2002 12.2765Q5.53027 13.0046 4.34082 13.2028L4.34082 15.2604L3.21973 15.2604L3.21973 13.2438Q1.49707 13.1584 0.348633 12.0407L1.10742 11.2135Q2.1123 12.1945 3.51367 12.1945Q4.39551 12.1945 4.96289 11.7604Q5.53027 11.3263 5.53027 10.5265Q5.53027 10.0651 5.35596 9.75748Q5.18164 9.44986 4.74756 9.21402Q4.31348 8.97477 3.5 8.72184Q2.05762 8.27408 1.39111 7.66568Q0.728027 7.05729 0.728027 6.02164Q0.728027 5.04068 1.41162 4.38443Q2.09863 3.72477 3.21973 3.5983L3.21973 1.55436L4.34082 1.55436L4.34082 3.61197Q5.01074 3.68033 5.55078 3.9401Q6.09082 4.19986 6.57959 4.66129L5.83789 5.47477Q5.36279 5.02701 4.8501 4.83219Q4.34082 4.63395 3.73926 4.63395Q2.99756 4.63395 2.52588 4.97916Q2.05762 5.32096 2.05762 5.96354Q2.05762 6.37027 2.2251 6.64371Q2.39258 6.91715 2.82666 7.14957Q3.26074 7.37857 4.10156 7.64518Q4.9834 7.90836 5.57129 8.23307Q6.15918 8.55436 6.51465 9.10123Q6.87354 9.64469 6.87354 10.4855Z" fill="#F0F0F0" />
              <path d="M7.02734 9.75748L7.02734 10.7795L5.81055 10.7795L5.81055 13.09L4.56299 13.09L4.56299 10.7795L0.560547 10.7795L0.560547 9.8566L3.37354 3.58463L4.45361 4.03238L1.91748 9.75748L4.57666 9.75748L4.68945 7.23844L5.81055 7.23844L5.81055 9.75748L7.02734 9.75748Z" transform="translate(0 16.8)" fill="#F0F0F0" />
            </g>
          </g>
          <g transform="translate(220 0)">
            <rect width="40" height="40" fill="#505050" fill-rule="evenodd" />
            <g transform="translate(14 3)">
              <path d="M8.58252 3.13688L9.47803 3.72477L2.99756 13.5241L2.09863 12.9362L8.58252 3.13688ZM2.89844 3.58463Q3.90674 3.58463 4.54248 4.23063Q5.18164 4.8732 5.18164 5.94986Q5.18164 7.02652 4.54248 7.67252Q3.90674 8.3151 2.89844 8.3151Q1.90381 8.3151 1.26465 7.67252Q0.628906 7.02652 0.628906 5.94986Q0.628906 4.8732 1.26465 4.23063Q1.90381 3.58463 2.89844 3.58463ZM2.89844 4.45279Q2.2832 4.45279 2.02344 4.8732Q1.76367 5.29361 1.76367 5.94986Q1.76367 6.59244 2.02344 7.01969Q2.2832 7.44693 2.89844 7.44693Q4.0332 7.44693 4.0332 5.94986Q4.0332 5.30729 3.78027 4.88004Q3.52734 4.45279 2.89844 4.45279ZM8.66455 8.52701Q9.67285 8.52701 10.3018 9.17301Q10.9341 9.81559 10.9341 10.8922Q10.9341 11.9689 10.3018 12.6149Q9.67285 13.2575 8.66455 13.2575Q7.65967 13.2575 7.02051 12.6149Q6.38477 11.9689 6.38477 10.8922Q6.38477 9.81559 7.02051 9.17301Q7.65967 8.52701 8.66455 8.52701ZM8.66455 9.40885Q8.04932 9.40885 7.78955 9.82242Q7.5332 10.2326 7.5332 10.8922Q7.5332 11.5348 7.78955 11.9621Q8.04932 12.3893 8.66455 12.3893Q9.79932 12.3893 9.79932 10.8922Q9.79932 10.2497 9.54639 9.82926Q9.29688 9.40885 8.66455 9.40885Z" fill="#F0F0F0" />
              <path d="M5.87891 4.73307L2.2251 4.73307L2.2251 7.49137Q2.93945 7.12564 3.72559 7.12564Q4.92871 7.12564 5.65674 7.91861Q6.38477 8.70816 6.38477 10.0924Q6.38477 11.0187 5.97803 11.7399Q5.57129 12.4611 4.83643 12.861Q4.10156 13.2575 3.1377 13.2575Q2.2832 13.2575 1.60986 12.9567Q0.936523 12.6559 0.362305 12.068L1.12109 11.3263Q1.56885 11.7741 2.04395 11.9928Q2.51904 12.2082 3.12061 12.2082Q4.01953 12.2082 4.52881 11.6476Q5.0415 11.0871 5.0415 10.0651Q5.0415 9.04313 4.57666 8.5817Q4.11523 8.12027 3.33252 8.12027Q2.9668 8.12027 2.65918 8.19889Q2.35156 8.27408 2.00293 8.44156L0.994629 8.44156L0.994629 3.72477L6.06348 3.72477L5.87891 4.73307Z" transform="translate(0 16.8)" fill="#F0F0F0" />
            </g>
          </g>
          <g transform="translate(266 0)">
            <rect width="40" height="40" fill="#505050" fill-rule="evenodd" />
            <g transform="translate(16 3)">
              <path d="M4.35449 1.32877L7 5.71061L5.62939 5.71061L3.7666 2.44986L1.91748 5.71061L0.560547 5.71061L3.20605 1.32877L4.35449 1.32877Z" fill="#F0F0F0" />
              <path d="M4.31348 6.93082Q5.02441 6.93082 5.6123 7.26578Q6.20361 7.60074 6.55225 8.27408Q6.90088 8.94742 6.90088 9.91129Q6.90088 10.9059 6.50098 11.6681Q6.10449 12.4303 5.42432 12.8439Q4.74756 13.2575 3.92041 13.2575Q2.2832 13.2575 1.52441 12.0475Q0.769043 10.8376 0.769043 8.69449Q0.769043 7.16666 1.19629 6.0148Q1.62354 4.85953 2.41992 4.22379Q3.21973 3.58463 4.31348 3.58463Q5.37646 3.58463 6.24463 4.15885L5.73877 5.01334Q5.08252 4.6066 4.29639 4.6066Q3.2915 4.6066 2.7002 5.57389Q2.1123 6.53775 2.05762 8.16129Q2.92578 6.93082 4.31348 6.93082ZM3.92041 12.2355Q4.73047 12.2355 5.16455 11.6203Q5.59863 11.005 5.59863 9.9523Q5.59863 7.95279 4.08789 7.95279Q3.47266 7.95279 2.95312 8.29459Q2.43701 8.63639 2.07129 9.24137Q2.1123 10.7795 2.55322 11.5075Q2.99756 12.2355 3.92041 12.2355Z" transform="translate(0 16.8)" fill="#F0F0F0" />
            </g>
          </g>
          <g transform="translate(312 0)">
            <rect width="40" height="40" fill="#505050" fill-rule="evenodd" />
            <g transform="translate(14.5 3)">
              <path d="M4.22803 3.27701Q4.9834 3.27701 5.56445 3.55045Q6.14551 3.82047 6.4668 4.31266Q6.7915 4.80143 6.7915 5.40299Q6.7915 6.23014 6.26514 6.82486Q5.73877 7.41959 4.81592 7.96646L7.28027 10.2907Q7.84082 9.15592 8.12109 7.92545L9.32422 8.27408Q8.83545 9.89762 8.07666 11.0324L9.64551 12.5021L8.72266 13.2575L7.3623 11.9416Q6.76074 12.6012 6.00537 12.9294Q5.25 13.2575 4.26904 13.2575Q3.34619 13.2575 2.63867 12.9362Q1.93115 12.6149 1.53125 12.0202Q1.13477 11.4254 1.13477 10.6393Q1.13477 9.77115 1.62354 9.12174Q2.1123 8.46891 3.07959 7.85367Q2.37891 7.18033 2.05078 6.65055Q1.72266 6.11734 1.72266 5.44742Q1.72266 4.49381 2.38574 3.88541Q3.05225 3.27701 4.22803 3.27701ZM4.2417 4.22721Q3.65381 4.22721 3.31543 4.56559Q2.98047 4.90055 2.98047 5.43033Q2.98047 5.93619 3.24707 6.33609Q3.51367 6.73258 4.08789 7.27945Q4.80225 6.84537 5.16455 6.41813Q5.53027 5.99088 5.53027 5.47477Q5.53027 4.88688 5.17822 4.55875Q4.82959 4.22721 4.2417 4.22721ZM3.82129 8.55436Q3.12061 9.01578 2.78564 9.50113Q2.45068 9.98307 2.45068 10.5983Q2.45068 11.3673 2.9873 11.8014Q3.52734 12.2355 4.40918 12.2355Q5.06885 12.2355 5.59863 11.986Q6.13184 11.7331 6.62061 11.2272L3.82129 8.55436Z" fill="#F0F0F0" />
              <path d="M5.79688 3.72477L5.79688 4.68863L2.29688 13.2301L1.12109 12.8371L4.49463 4.77408L0.348633 4.77408L0.348633 3.72477L5.79688 3.72477Z" transform="translate(0 16.8)" fill="#F0F0F0" />
            </g>
          </g>
          <g transform="translate(358 0)">
            <rect width="40" height="40" fill="#505050" fill-rule="evenodd" />
            <g transform="translate(16 3)">
              <path d="M5.86523 5.23551L3.72559 5.69693L5.18164 7.32047L4.17334 8.06559L3.06592 6.18912L1.97559 8.06559L0.967285 7.33756L2.40967 5.69693L0.280273 5.23551L0.659668 4.08707L2.64551 4.94156L2.43701 2.74381L3.69482 2.74381L3.48633 4.95523L5.47559 4.0734L5.86523 5.23551Z" fill="#F0F0F0" />
              <path d="M5.10986 8.06559Q7.08545 8.86197 7.08545 10.5846Q7.08545 11.3537 6.67188 11.9621Q6.2583 12.5705 5.5166 12.9157Q4.7749 13.2575 3.83496 13.2575Q2.88477 13.2575 2.15674 12.9225Q1.42871 12.5876 1.02881 11.986Q0.628906 11.381 0.628906 10.612Q0.628906 9.74381 1.09717 9.15592Q1.56885 8.56803 2.47803 8.17496Q1.73633 7.79898 1.37744 7.25895Q1.02197 6.71891 1.02197 5.99088Q1.02197 5.23551 1.41846 4.69205Q1.81836 4.14518 2.46777 3.8649Q3.12061 3.58463 3.8623 3.58463Q4.59033 3.58463 5.23975 3.85123Q5.89258 4.11441 6.29932 4.65445Q6.70605 5.19449 6.70605 5.94986Q6.70605 6.65055 6.31299 7.15641Q5.92334 7.65885 5.10986 8.06559ZM3.8623 4.5485Q3.1377 4.5485 2.71045 4.92789Q2.2832 5.30729 2.2832 6.00455Q2.2832 6.67789 2.69336 7.02994Q3.10693 7.37857 4.01953 7.67252L4.25537 7.75455Q4.8877 7.39225 5.16455 6.98551Q5.44482 6.57877 5.44482 5.99088Q5.44482 5.33463 5.03125 4.94156Q4.62109 4.5485 3.8623 4.5485ZM3.84863 12.2355Q4.7168 12.2355 5.22607 11.7878Q5.73877 11.34 5.73877 10.5983Q5.73877 10.0924 5.54395 9.75064Q5.34912 9.40885 4.91504 9.14908Q4.48096 8.88932 3.69482 8.62271L3.34619 8.49967Q2.64551 8.83463 2.31055 9.34732Q1.97559 9.8566 1.97559 10.612Q1.97559 11.381 2.47803 11.8083Q2.98047 12.2355 3.84863 12.2355Z" transform="translate(0 16.8)" fill="#F0F0F0" />
            </g>
          </g>
          <g transform="translate(404 0)">
            <rect width="40" height="40" fill="#505050" fill-rule="evenodd" />
            <g transform="translate(16 3)">
              <path d="M3.9751 1.82096Q3.24707 2.89762 2.81982 3.74527Q2.39258 4.59293 2.14648 5.67301Q1.90381 6.74967 1.90381 8.18863Q1.90381 9.61734 2.14648 10.6974Q2.39258 11.7741 2.81982 12.6354Q3.24707 13.4967 3.9751 14.5597L3.16504 15.1203Q2.23877 13.8044 1.74316 12.9567Q1.24756 12.109 0.902344 10.9264Q0.560547 9.74381 0.560547 8.18863Q0.560547 6.63688 0.902344 5.45426Q1.24756 4.27164 1.74316 3.42398Q2.23877 2.57633 3.16504 1.26041L3.9751 1.82096Z" fill="#F0F0F0" />
              <path d="M3.62646 3.58463Q5.10986 3.58463 5.87891 4.55875Q6.65137 5.52945 6.65137 7.22477Q6.65137 9.14225 6.13184 10.3112Q5.6123 11.4801 4.54932 12.174Q3.48633 12.8644 1.66455 13.3976L1.37061 12.4303Q3.24707 11.9005 4.24854 10.9914Q5.25 10.0788 5.31836 8.56803Q4.99707 9.07047 4.4502 9.3815Q3.90674 9.68912 3.21973 9.68912Q2.4917 9.68912 1.90381 9.31998Q1.31592 8.94742 0.970703 8.26725Q0.628906 7.58707 0.628906 6.67789Q0.628906 5.7277 1.03564 5.02701Q1.44238 4.32633 2.11914 3.95719Q2.79932 3.58463 3.62646 3.58463ZM3.48633 8.68082Q4.59033 8.68082 5.34912 7.51871Q5.37646 5.96354 4.96289 5.28678Q4.54932 4.6066 3.65381 4.6066Q2.82666 4.6066 2.37891 5.15348Q1.93115 5.69693 1.93115 6.70523Q1.93115 7.68619 2.35156 8.18521Q2.77197 8.68082 3.48633 8.68082Z" transform="translate(0 16.8)" fill="#F0F0F0" />
            </g>
          </g>
          <g transform="translate(450 0)">
            <rect width="40" height="40" fill="#505050" fill-rule="evenodd" />
            <g transform="translate(16 3)">
              <path d="M1.37061 1.26041Q2.29688 2.57633 2.79248 3.42398Q3.2915 4.27164 3.6333 5.45426Q3.9751 6.63688 3.9751 8.18863Q3.9751 9.74381 3.6333 10.9264Q3.2915 12.109 2.79248 12.9567Q2.29688 13.8044 1.37061 15.1203L0.560547 14.5597Q1.28857 13.4967 1.71582 12.6354Q2.14307 11.7741 2.38574 10.6974Q2.63184 9.61734 2.63184 8.18863Q2.63184 6.74967 2.38574 5.67301Q2.14307 4.59293 1.71582 3.74527Q1.28857 2.89762 0.560547 1.82096L1.37061 1.26041Z" fill="#F0F0F0" />
              <path d="M3.90674 3.58463Q5.4585 3.58463 6.24805 4.82535Q7.04102 6.06266 7.04102 8.41422Q7.04102 10.7658 6.24805 12.0133Q5.4585 13.2575 3.90674 13.2575Q2.35156 13.2575 1.55859 12.0133Q0.769043 10.7658 0.769043 8.41422Q0.769043 6.06266 1.55859 4.82535Q2.35156 3.58463 3.90674 3.58463ZM3.90674 4.6066Q2.99756 4.6066 2.55322 5.50211Q2.1123 6.39762 2.1123 8.41422Q2.1123 10.4308 2.55322 11.3332Q2.99756 12.2355 3.90674 12.2355Q4.80225 12.2355 5.25 11.3332Q5.69775 10.4308 5.69775 8.41422Q5.69775 6.41129 5.25 5.50895Q4.80225 4.6066 3.90674 4.6066Z" transform="translate(0 16.8)" fill="#F0F0F0" />
            </g>
          </g>
          <g transform="translate(496 0)">
            <rect width="40" height="40" fill="#505050" fill-rule="evenodd" />
            <g transform="translate(16 3)">
              <path d="M0.239258 15.0793L0.239258 13.9718L7.04102 13.9718L7.04102 15.0793L0.239258 15.0793Z" fill="#F0F0F0" />
              <path d="M0.84082 9.25504L0.84082 8.16129L4.80225 8.16129L4.80225 9.25504L0.84082 9.25504Z" transform="translate(0 16.8)" fill="#F0F0F0" />
            </g>
          </g>
          <g transform="translate(542 0)">
            <rect width="40" height="40" fill="#505050" fill-rule="evenodd" />
            <g transform="translate(16.5 3)">
              <path d="M4.07422 5.8234L4.07422 7.92545L6.11816 7.92545L6.11816 8.98844L4.07422 8.98844L4.07422 11.0734L2.89844 11.0734L2.89844 8.98844L0.868164 8.98844L0.868164 7.92545L2.89844 7.92545L2.89844 5.8234L4.07422 5.8234Z" fill="#F0F0F0" />
              <path d="M0.868164 7.64518L0.868164 6.5651L6.13184 6.5651L6.13184 7.64518L0.868164 7.64518ZM0.868164 10.3454L0.868164 9.26529L6.13184 9.26529L6.13184 10.3454L0.868164 10.3454Z" transform="translate(0 16.8)" fill="#F0F0F0" />
            </g>
          </g>
          <g transform="translate(588 0)">
            <rect width="63" height="40" fill="#505050" fill-rule="evenodd" />
            <path d="M4.52637 1.76388L4.52637 8.415L3.79907 8.415L3.71777 7.75802Q3.48267 8.11837 3.1311 8.32052Q2.78174 8.52267 2.34888 8.52267Q1.50293 8.52267 1.03052 7.85689Q0.558105 7.19112 0.558105 6.06612Q0.558105 5.33663 0.782227 4.76974Q1.00854 4.20284 1.43042 3.88424Q1.85449 3.56344 2.42139 3.56344Q3.15088 3.56344 3.698 4.14791L3.698 1.665L4.52637 1.76388ZM2.52905 7.86568Q2.90698 7.86568 3.17725 7.6899Q3.44751 7.51412 3.698 7.16476L3.698 4.84225Q3.46509 4.53683 3.19922 4.37862Q2.93335 4.22042 2.60156 4.22042Q2.05225 4.22042 1.74902 4.67965Q1.448 5.13888 1.448 6.04854Q1.448 6.967 1.72705 7.41744Q2.0061 7.86568 2.52905 7.86568ZM9.81828 5.90353Q9.81828 6.11007 9.8007 6.3276L6.77726 6.3276Q6.83 7.10982 7.17277 7.47896Q7.51554 7.84811 8.05607 7.84811Q8.39665 7.84811 8.68449 7.74923Q8.97233 7.65035 9.28874 7.43502L9.64909 7.9294Q8.89103 8.52267 7.99235 8.52267Q7.00138 8.52267 6.44767 7.87447Q5.89396 7.22628 5.89396 6.09249Q5.89396 5.35421 6.13346 4.78292Q6.37297 4.21163 6.81681 3.88863Q7.26286 3.56344 7.86491 3.56344Q8.81193 3.56344 9.31511 4.18526Q9.81828 4.80709 9.81828 5.90353ZM9.0009 5.66183Q9.0009 4.9587 8.72184 4.58956Q8.44279 4.22042 7.88469 4.22042Q6.86735 4.22042 6.77726 5.71456L9.0009 5.71456L9.0009 5.66183ZM12.0866 8.52267Q11.6273 8.52267 11.3615 8.24801Q11.0978 7.97335 11.0978 7.47896L11.0978 1.76388L11.924 1.665L11.924 7.46139Q11.924 7.65914 11.9921 7.74923Q12.0602 7.83932 12.2228 7.83932Q12.392 7.83932 12.5282 7.78438L12.7435 8.36007Q12.4469 8.52267 12.0866 8.52267ZM17.3153 5.90353Q17.3153 6.11007 17.2977 6.3276L14.2743 6.3276Q14.327 7.10982 14.6698 7.47896Q15.0125 7.84811 15.5531 7.84811Q15.8936 7.84811 16.1815 7.74923Q16.4693 7.65035 16.7857 7.43502L17.1461 7.9294Q16.388 8.52267 15.4894 8.52267Q14.4984 8.52267 13.9447 7.87447Q13.391 7.22628 13.391 6.09249Q13.391 5.35421 13.6305 4.78292Q13.87 4.21163 14.3138 3.88863Q14.7599 3.56344 15.3619 3.56344Q16.3089 3.56344 16.8121 4.18526Q17.3153 4.80709 17.3153 5.90353ZM16.4979 5.66183Q16.4979 4.9587 16.2188 4.58956Q15.9398 4.22042 15.3817 4.22042Q14.3644 4.22042 14.2743 5.71456L16.4979 5.71456L16.4979 5.66183ZM21.0338 8.19967Q20.5657 8.52267 19.9703 8.52267Q19.3682 8.52267 19.0299 8.1777Q18.6937 7.83053 18.6937 7.17354L18.6937 4.31051L17.8653 4.31051L17.8653 3.6711L18.6937 3.6711L18.6937 2.60104L19.522 2.50216L19.522 3.6711L20.647 3.6711L20.5569 4.31051L19.522 4.31051L19.522 7.13619Q19.522 7.50533 19.6517 7.67232Q19.7813 7.83932 20.0889 7.83932Q20.368 7.83932 20.7174 7.65035L21.0338 8.19967ZM25.3343 5.90353Q25.3343 6.11007 25.3167 6.3276L22.2933 6.3276Q22.346 7.10982 22.6888 7.47896Q23.0315 7.84811 23.5721 7.84811Q23.9126 7.84811 24.2005 7.74923Q24.4883 7.65035 24.8047 7.43502L25.1651 7.9294Q24.407 8.52267 23.5084 8.52267Q22.5174 8.52267 21.9637 7.87447Q21.41 7.22628 21.41 6.09249Q21.41 5.35421 21.6495 4.78292Q21.889 4.21163 22.3328 3.88863Q22.7789 3.56344 23.3809 3.56344Q24.3279 3.56344 24.8311 4.18526Q25.3343 4.80709 25.3343 5.90353ZM24.5169 5.66183Q24.5169 4.9587 24.2378 4.58956Q23.9588 4.22042 23.4007 4.22042Q22.3834 4.22042 22.2933 5.71456L24.5169 5.71456L24.5169 5.66183Z" fill="#F0F0F0" transform="translate(33 25)" />
          </g>
        </g>
        <g transform="translate(0 92)">
          <g>
            <rect width="53" height="40" fill="#505050" fill-rule="evenodd" />
            <path d="M3.24976 8.19967Q2.78174 8.52267 2.18628 8.52267Q1.58423 8.52267 1.24585 8.1777Q0.909668 7.83053 0.909668 7.17354L0.909668 4.31051L0.0812988 4.31051L0.0812988 3.6711L0.909668 3.6711L0.909668 2.60104L1.73804 2.50216L1.73804 3.6711L2.86304 3.6711L2.77295 4.31051L1.73804 4.31051L1.73804 7.13619Q1.73804 7.50533 1.86768 7.67232Q1.99731 7.83932 2.30493 7.83932Q2.58398 7.83932 2.93335 7.65035L3.24976 8.19967ZM7.23556 7.30758Q7.23556 7.59542 7.33444 7.73604Q7.43331 7.87447 7.63107 7.94698L7.4421 8.52267Q7.07296 8.47872 6.84884 8.31612Q6.62472 8.15353 6.51705 7.81295Q6.03805 8.52267 5.10202 8.52267Q4.40109 8.52267 3.99459 8.12716Q3.5903 7.73165 3.5903 7.09225Q3.5903 6.33639 4.13522 5.93209Q4.68014 5.5256 5.6799 5.5256L6.40719 5.5256L6.40719 5.17403Q6.40719 4.67086 6.16329 4.45553Q5.9216 4.238 5.41842 4.238Q4.89547 4.238 4.13961 4.49068L3.93307 3.88863Q4.81417 3.56344 5.57003 3.56344Q6.40719 3.56344 6.82028 3.97433Q7.23556 4.38302 7.23556 5.13888L7.23556 7.30758ZM5.29098 7.90304Q6.00289 7.90304 6.40719 7.16476L6.40719 6.07491L5.78756 6.07491Q4.4736 6.07491 4.4736 7.0461Q4.4736 7.47018 4.68014 7.68771Q4.88668 7.90304 5.29098 7.90304ZM11.1054 3.56344Q11.9162 3.56344 12.393 4.21603Q12.8698 4.86861 12.8698 6.03976Q12.8698 6.77804 12.6435 7.34054Q12.4194 7.90304 11.9953 8.21285Q11.5735 8.52267 11.0066 8.52267Q10.2595 8.52267 9.74753 7.89205L9.66623 8.415L8.93674 8.415L8.93674 1.76388L9.76511 1.665L9.76511 4.26656Q10.2771 3.56344 11.1054 3.56344ZM10.8088 7.86568Q11.3581 7.86568 11.6679 7.42184Q11.9799 6.97579 11.9799 6.03976Q11.9799 5.07516 11.6899 4.64889Q11.4021 4.22042 10.8725 4.22042Q10.2419 4.22042 9.76511 4.9587L9.76511 7.22628Q9.95407 7.52291 10.2287 7.6943Q10.5034 7.86568 10.8088 7.86568Z" fill="#F0F0F0" transform="translate(4 25)" />
          </g>
          <g transform="translate(59 0)">
            <rect width="40" height="40" fill="#505050" fill-rule="evenodd" />
            <path d="M6.70605 12.5431Q7.4751 12.5431 8.104 12.7755Q8.73633 13.0046 9.32422 13.4113L8.45605 14.5324Q7.61523 13.7907 6.85986 13.5104Q6.10449 13.2301 4.81592 13.2301Q3.61279 13.2301 2.7002 12.6628Q1.79102 12.0954 1.27832 10.9845Q0.769043 9.87027 0.769043 8.28775Q0.769043 6.73258 1.27832 5.60123Q1.79102 4.46646 2.71387 3.87174Q3.64014 3.27701 4.84326 3.27701Q6.06348 3.27701 6.97949 3.85807Q7.89551 4.43912 8.40479 5.56021Q8.91748 6.67789 8.91748 8.27408Q8.91748 9.96939 8.35693 10.9709Q7.79639 11.9689 6.70605 12.5431ZM2.18408 8.28775Q2.18408 10.2907 2.8916 11.2306Q3.59912 12.1671 4.84326 12.1671Q7.50244 12.1671 7.50244 8.27408Q7.50244 4.36734 4.84326 4.36734Q3.58545 4.36734 2.88477 5.32096Q2.18408 6.27115 2.18408 8.28775Z" fill="#F0F0F0" transform="translate(15 11.5)" />
          </g>
          <g transform="translate(105 0)">
            <rect width="40" height="40" fill="#505050" fill-rule="evenodd" />
            <path d="M11.2144 3.44449L9.25244 13.09L7.54688 13.09L5.76953 5.01334L3.9751 13.09L2.31055 13.09L0.348633 3.44449L1.65088 3.44449L3.20605 11.9279L5.06885 3.44449L6.48047 3.44449L8.38428 11.9279L9.99756 3.44449L11.2144 3.44449Z" fill="#F0F0F0" transform="translate(14 11.5)" />
          </g>
          <g transform="translate(151 0)">
            <rect width="40" height="40" fill="#505050" fill-rule="evenodd" />
            <path d="M6.62061 3.44449L6.4668 4.50748L2.73096 4.50748L2.73096 7.65885L5.97803 7.65885L5.97803 8.72184L2.73096 8.72184L2.73096 12.027L6.7334 12.027L6.7334 13.09L1.40137 13.09L1.40137 3.44449L6.62061 3.44449Z" fill="#F0F0F0" transform="translate(16 11.5)" />
          </g>
          <g transform="translate(197 0)">
            <rect width="40" height="40" fill="#505050" fill-rule="evenodd" />
            <path d="M4.22803 9.00211L2.73096 9.00211L2.73096 13.09L1.40137 13.09L1.40137 3.44449L3.93408 3.44449Q5.73877 3.44449 6.66846 4.1315Q7.60156 4.8151 7.60156 6.17545Q7.60156 7.18033 7.08203 7.81266Q6.56592 8.44156 5.5166 8.76285L8.12109 13.09L6.53857 13.09L4.22803 9.00211ZM4.07422 7.98014Q5.12354 7.98014 5.65332 7.55289Q6.18652 7.12564 6.18652 6.17545Q6.18652 5.27652 5.64648 4.88004Q5.10986 4.48014 3.92041 4.48014L2.73096 4.48014L2.73096 7.98014L4.07422 7.98014Z" fill="#F0F0F0" transform="translate(15.5 11.5)" />
          </g>
          <g transform="translate(243 0)">
            <rect width="40" height="40" fill="#505050" fill-rule="evenodd" />
            <path d="M7.09912 3.44449L6.95898 4.57926L4.28271 4.57926L4.28271 13.09L2.95312 13.09L2.95312 4.57926L0.208496 4.57926L0.208496 3.44449L7.09912 3.44449Z" fill="#F0F0F0" transform="translate(16 11.5)" />
          </g>
          <g transform="translate(289 0)">
            <rect width="40" height="40" fill="#505050" fill-rule="evenodd" />
            <path d="M7.62891 3.44449L4.52197 9.3815L4.52197 13.09L3.17871 13.09L3.17871 9.39518L0.0683594 3.44449L1.5415 3.44449L3.89307 8.21939L6.24463 3.44449L7.62891 3.44449Z" fill="#F0F0F0" transform="translate(16 11.5)" />
          </g>
          <g transform="translate(335 0)">
            <rect width="40" height="40" fill="#505050" fill-rule="evenodd" />
            <path d="M8.0083 9.99674Q8.0083 10.9606 7.6084 11.6955Q7.2085 12.4303 6.44629 12.8439Q5.68408 13.2575 4.62109 13.2575Q3.01123 13.2575 2.13623 12.3688Q1.26123 11.4801 1.26123 9.99674L1.26123 3.44449L2.59082 3.44449L2.59082 9.89762Q2.59082 11.0187 3.09326 11.5793Q3.59912 12.1364 4.62109 12.1364Q5.65674 12.1364 6.15918 11.5861Q6.66504 11.0324 6.66504 9.89762L6.66504 3.44449L8.0083 3.44449L8.0083 9.99674Z" fill="#F0F0F0" transform="translate(15 11.5)" />
          </g>
          <g transform="translate(381 0)">
            <rect width="40" height="40" fill="#505050" fill-rule="evenodd" />
            <path d="M2.73096 3.44449L2.73096 13.09L1.40137 13.09L1.40137 3.44449L2.73096 3.44449Z" fill="#F0F0F0" transform="translate(17.5 11.5)" />
          </g>
          <g transform="translate(427 0)">
            <rect width="40" height="40" fill="#505050" fill-rule="evenodd" />
            <path d="M4.84326 3.27701Q6.06348 3.27701 6.97949 3.85807Q7.89551 4.43912 8.40479 5.56021Q8.91748 6.67789 8.91748 8.27408Q8.91748 9.84293 8.40479 10.964Q7.89551 12.0817 6.97949 12.6696Q6.06348 13.2575 4.84326 13.2575Q3.62646 13.2575 2.70703 12.6833Q1.79102 12.109 1.27832 10.9914Q0.769043 9.87027 0.769043 8.28775Q0.769043 6.73258 1.27832 5.60123Q1.79102 4.46646 2.71387 3.87174Q3.64014 3.27701 4.84326 3.27701ZM4.84326 4.36734Q3.58545 4.36734 2.88477 5.32096Q2.18408 6.27115 2.18408 8.28775Q2.18408 10.2907 2.8916 11.2306Q3.59912 12.1671 4.84326 12.1671Q7.50244 12.1671 7.50244 8.27408Q7.50244 4.36734 4.84326 4.36734Z" fill="#F0F0F0" transform="translate(15 11.5)" />
          </g>
          <g transform="translate(473 0)">
            <rect width="40" height="40" fill="#505050" fill-rule="evenodd" />
            <path d="M3.93408 3.44449Q5.7251 3.44449 6.70605 4.19303Q7.68701 4.94156 7.68701 6.42496Q7.68701 8.00748 6.66504 8.77994Q5.64307 9.54898 3.94775 9.54898L2.73096 9.54898L2.73096 13.09L1.40137 13.09L1.40137 3.44449L3.93408 3.44449ZM3.89307 8.49967Q5.05518 8.49967 5.66357 8.05191Q6.27197 7.60074 6.27197 6.43863Q6.27197 5.40299 5.66357 4.94156Q5.05518 4.48014 3.92041 4.48014L2.73096 4.48014L2.73096 8.49967L3.89307 8.49967Z" fill="#F0F0F0" transform="translate(15.5 11.5)" />
          </g>
          <g transform="translate(519 0)">
            <rect width="40" height="40" fill="#505050" fill-rule="evenodd" />
            <g transform="translate(17.5 3)">
              <path d="M3.87939 2.3815Q3.16504 2.3815 2.854 2.60025Q2.54639 2.81559 2.54639 3.3317L2.54639 6.67789Q2.54639 7.39225 2.29346 7.7067Q2.04395 8.02115 1.49707 8.2023Q2.05762 8.40055 2.30029 8.69449Q2.54639 8.98844 2.54639 9.70279L2.54639 13.049Q2.54639 13.5651 2.854 13.7804Q3.16504 13.9992 3.87939 13.9992L3.87939 14.9938Q2.47803 14.9938 1.90381 14.5085Q1.32959 14.0265 1.32959 12.9088L1.32959 9.7985Q1.32959 9.21061 1.11084 8.97477Q0.895508 8.73551 0.348633 8.73551L0.348633 7.67252Q0.895508 7.67252 1.11084 7.41959Q1.32959 7.16666 1.32959 6.57877L1.32959 3.47184Q1.32959 2.35074 1.90381 1.86881Q2.47803 1.38688 3.87939 1.38688L3.87939 2.3815Z" fill="#F0F0F0" />
              <path d="M3.80762 1.66715L3.80762 2.74381L2.12939 2.74381L2.12939 13.6505L3.80762 13.6505L3.80762 14.7135L0.90918 14.7135L0.90918 1.66715L3.80762 1.66715Z" transform="translate(0 16.8)" fill="#F0F0F0" />
            </g>
          </g>
          <g transform="translate(565 0)">
            <rect width="40" height="40" fill="#505050" fill-rule="evenodd" />
            <g transform="translate(17.5 3)">
              <path d="M0.628906 1.38688Q2.03027 1.38688 2.60449 1.86881Q3.17871 2.35074 3.17871 3.47184L3.17871 6.57877Q3.17871 7.16666 3.39404 7.41959Q3.61279 7.67252 4.15967 7.67252L4.15967 8.73551Q3.61279 8.73551 3.39404 8.97477Q3.17871 9.21061 3.17871 9.7985L3.17871 12.9088Q3.17871 14.0265 2.60449 14.5085Q2.03027 14.9938 0.628906 14.9938L0.628906 13.9992Q1.34326 13.9992 1.65088 13.7804Q1.9585 13.5651 1.9585 13.049L1.9585 9.70279Q1.9585 8.98844 2.20459 8.69449Q2.45068 8.40055 3.01123 8.2023Q2.46436 8.02115 2.21143 7.7067Q1.9585 7.39225 1.9585 6.67789L1.9585 3.3317Q1.9585 2.81559 1.65088 2.60025Q1.34326 2.3815 0.628906 2.3815L0.628906 1.38688Z" fill="#F0F0F0" />
              <path d="M3.59912 1.66715L3.59912 14.7135L0.700684 14.7135L0.700684 13.6505L2.37891 13.6505L2.37891 2.74381L0.700684 2.74381L0.700684 1.66715L3.59912 1.66715Z" transform="translate(0 16.8)" fill="#F0F0F0" />
            </g>
          </g>
          <g transform="translate(611 0)">
            <rect width="40" height="40" fill="#505050" fill-rule="evenodd" />
            <g transform="translate(15.5 6.5)">
              <path d="M2.67212 1.40927L2.67212 11.4076L1.75903 11.4076L1.75903 1.40927L2.67212 1.40927Z" fill="#F0F0F0" />
              <path d="M2.01416 1.40927L4.56543 11.2196L3.69531 11.429L1.15479 1.60531L2.01416 1.40927Z" transform="translate(0 13.2)" fill="#F0F0F0" />
            </g>
          </g>
        </g>
        <g transform="translate(0 138)">
          <g>
            <rect width="69.5" height="40" fill="#505050" fill-rule="evenodd" />
            <path d="M0 3C0 1.34315 1.34315 0 3 0C4.65685 0 6 1.34315 6 3C6 4.65685 4.65685 6 3 6C1.34315 6 0 4.65685 0 3Z" fill="#A5A5A5" fill-rule="evenodd" transform="translate(4 4)" />
            <path d="M2.58398 3.56344Q3.00586 3.56344 3.35742 3.68648Q3.70898 3.80733 4.03198 4.0776L3.63647 4.59835Q3.38379 4.41817 3.14429 4.33468Q2.90698 4.24898 2.61914 4.24898Q2.04346 4.24898 1.72266 4.70821Q1.40405 5.16524 1.40405 6.06612Q1.40405 6.967 1.71826 7.39547Q2.03467 7.82174 2.61914 7.82174Q2.89819 7.82174 3.1311 7.73604Q3.36621 7.65035 3.65405 7.46139L4.03198 8.00191Q3.38379 8.52267 2.58398 8.52267Q1.61938 8.52267 1.06567 7.87447Q0.511963 7.22628 0.511963 6.0837Q0.511963 5.32784 0.764648 4.76095Q1.01733 4.19405 1.48096 3.87984Q1.94458 3.56344 2.58398 3.56344ZM8.26156 7.30758Q8.26156 7.59542 8.36044 7.73604Q8.45931 7.87447 8.65707 7.94698L8.4681 8.52267Q8.09896 8.47872 7.87484 8.31612Q7.65072 8.15353 7.54305 7.81295Q7.06405 8.52267 6.12802 8.52267Q5.42709 8.52267 5.02059 8.12716Q4.6163 7.73165 4.6163 7.09225Q4.6163 6.33639 5.16122 5.93209Q5.70614 5.5256 6.7059 5.5256L7.43319 5.5256L7.43319 5.17403Q7.43319 4.67086 7.18929 4.45553Q6.9476 4.238 6.44442 4.238Q5.92147 4.238 5.16561 4.49068L4.95907 3.88863Q5.84017 3.56344 6.59603 3.56344Q7.43319 3.56344 7.84628 3.97433Q8.26156 4.38302 8.26156 5.13888L8.26156 7.30758ZM6.31698 7.90304Q7.02889 7.90304 7.43319 7.16476L7.43319 6.07491L6.81356 6.07491Q5.4996 6.07491 5.4996 7.0461Q5.4996 7.47018 5.70614 7.68771Q5.91268 7.90304 6.31698 7.90304ZM12.1402 3.56344Q13.0499 3.56344 13.4718 4.21163Q13.8958 4.85982 13.8958 6.03976Q13.8958 7.15597 13.4102 7.83932Q12.9247 8.52267 12.0326 8.52267Q11.2415 8.52267 10.7911 7.98214L10.7911 10.2321L9.96274 10.331L9.96274 3.6711L10.6747 3.6711L10.7362 4.31051Q10.9976 3.95016 11.3668 3.7568Q11.7359 3.56344 12.1402 3.56344ZM11.8348 7.84811Q13.0059 7.84811 13.0059 6.03976Q13.0059 4.22042 11.9337 4.22042Q11.5821 4.22042 11.2943 4.42916Q11.0064 4.6357 10.7911 4.9587L10.7911 7.27242Q10.9713 7.55147 11.2415 7.70089Q11.5118 7.84811 11.8348 7.84811ZM16.5963 3.56344Q17.0819 3.56344 17.4686 3.69967Q17.8554 3.8337 18.2069 4.10396L17.8554 4.62691Q17.5324 4.41817 17.2401 4.3193Q16.9479 4.22042 16.6227 4.22042Q16.2184 4.22042 15.9833 4.38741Q15.7504 4.5544 15.7504 4.84225Q15.7504 5.13009 15.9701 5.29269Q16.192 5.45309 16.7677 5.60689Q17.5587 5.80465 17.9498 6.14742Q18.341 6.488 18.341 7.08346Q18.341 7.78438 17.796 8.15353Q17.2533 8.52267 16.4711 8.52267Q15.39 8.52267 14.6781 7.90304L15.1198 7.39767Q15.724 7.85689 16.4513 7.85689Q16.9193 7.85689 17.194 7.66354Q17.4686 7.47018 17.4686 7.13619Q17.4686 6.89449 17.3698 6.74728Q17.2709 6.59786 17.027 6.4858Q16.7853 6.37154 16.3173 6.2463Q15.5614 6.04854 15.223 5.71676Q14.8869 5.38277 14.8869 4.86861Q14.8869 4.49947 15.1066 4.19845Q15.3263 3.89742 15.7174 3.73043Q16.1107 3.56344 16.5963 3.56344ZM22.8416 8.52267Q22.3823 8.52267 22.1165 8.24801Q21.8528 7.97335 21.8528 7.47896L21.8528 1.76388L22.679 1.665L22.679 7.46139Q22.679 7.65914 22.7471 7.74923Q22.8152 7.83932 22.9778 7.83932Q23.147 7.83932 23.2832 7.78438L23.4985 8.36007Q23.2019 8.52267 22.8416 8.52267ZM26.2707 3.56344Q27.2705 3.56344 27.8242 4.22921Q28.3779 4.89498 28.3779 6.03976Q28.3779 6.77804 28.1252 7.34054Q27.8725 7.90304 27.3957 8.21285Q26.9189 8.52267 26.2619 8.52267Q25.2622 8.52267 24.7041 7.85689Q24.146 7.19112 24.146 6.04854Q24.146 5.31026 24.3986 4.74776Q24.6513 4.18526 25.1281 3.87545Q25.6049 3.56344 26.2707 3.56344ZM26.2707 4.22921Q25.0381 4.22921 25.0381 6.04854Q25.0381 7.85689 26.2619 7.85689Q27.4858 7.85689 27.4858 6.03976Q27.4858 4.22921 26.2707 4.22921ZM31.474 3.56344Q31.8959 3.56344 32.2474 3.68648Q32.599 3.80733 32.922 4.0776L32.5265 4.59835Q32.2738 4.41817 32.0343 4.33468Q31.797 4.24898 31.5091 4.24898Q30.9335 4.24898 30.6127 4.70821Q30.2941 5.16524 30.2941 6.06612Q30.2941 6.967 30.6083 7.39547Q30.9247 7.82174 31.5091 7.82174Q31.7882 7.82174 32.0211 7.73604Q32.2562 7.65035 32.5441 7.46139L32.922 8.00191Q32.2738 8.52267 31.474 8.52267Q30.5094 8.52267 29.9557 7.87447Q29.402 7.22628 29.402 6.0837Q29.402 5.32784 29.6546 4.76095Q29.9073 4.19405 30.371 3.87984Q30.8346 3.56344 31.474 3.56344ZM34.8751 1.665L34.8751 8.415L34.0467 8.415L34.0467 1.76388L34.8751 1.665ZM37.6019 3.6711L35.8551 5.76949L37.7997 8.415L36.8109 8.415L34.93 5.82223L36.6747 3.6711L37.6019 3.6711Z" fill="#F0F0F0" transform="translate(4 25)" />
          </g>
          <g transform="translate(75.5 0)">
            <rect width="40" height="40" fill="#505050" fill-rule="evenodd" />
            <path d="M6.53857 13.09L5.81055 10.6667L2.15674 10.6667L1.42871 13.09L0.0854492 13.09L3.17871 3.44449L4.85693 3.44449L7.93652 13.09L6.53857 13.09ZM2.47803 9.59L5.48926 9.59L3.98877 4.5485L2.47803 9.59Z" fill="#F0F0F0" transform="translate(16 11.5)" />
          </g>
          <g transform="translate(121.5 0)">
            <rect width="40" height="40" fill="#505050" fill-rule="evenodd" />
            <path d="M3.78027 3.27701Q4.74756 3.27701 5.43115 3.55045Q6.11816 3.82047 6.76074 4.39469L6.03271 5.20816Q5.48926 4.77408 4.96289 4.57242Q4.43652 4.36734 3.83496 4.36734Q3.07959 4.36734 2.5874 4.71939Q2.09863 5.06803 2.09863 5.74137Q2.09863 6.15836 2.26611 6.44547Q2.43701 6.73258 2.8916 6.97184Q3.34619 7.21109 4.21436 7.4777Q5.12354 7.75455 5.7251 8.07926Q6.32666 8.40055 6.6958 8.96793Q7.06836 9.53531 7.06836 10.4035Q7.06836 11.2409 6.65479 11.8869Q6.24463 12.5295 5.46533 12.8952Q4.68945 13.2575 3.62646 13.2575Q1.62354 13.2575 0.348633 12.0133L1.07666 11.1999Q1.66455 11.675 2.26611 11.9211Q2.87109 12.1671 3.61279 12.1671Q4.5083 12.1671 5.09619 11.7262Q5.68408 11.2853 5.68408 10.4445Q5.68408 9.96939 5.49951 9.65494Q5.31836 9.33707 4.87744 9.08756Q4.43652 8.83463 3.59912 8.5817Q2.1123 8.13395 1.42529 7.50504Q0.741699 6.87271 0.741699 5.79605Q0.741699 5.06803 1.12451 4.49381Q1.51074 3.91959 2.20459 3.5983Q2.89844 3.27701 3.78027 3.27701Z" fill="#F0F0F0" transform="translate(16 11.5)" />
          </g>
          <g transform="translate(167.5 0)">
            <rect width="40" height="40" fill="#505050" fill-rule="evenodd" />
            <path d="M3.41455 3.44449Q5.59863 3.44449 6.92139 4.45963Q8.24756 5.47477 8.24756 8.21939Q8.24756 10.8922 6.92139 11.9928Q5.59863 13.09 3.7085 13.09L1.40137 13.09L1.40137 3.44449L3.41455 3.44449ZM2.73096 4.50748L2.73096 12.0407L3.80762 12.0407Q5.15088 12.0407 5.9917 11.2135Q6.83252 10.3864 6.83252 8.21939Q6.83252 6.69156 6.39844 5.87467Q5.96436 5.05436 5.29102 4.78092Q4.62109 4.50748 3.7085 4.50748L2.73096 4.50748Z" fill="#F0F0F0" transform="translate(15.5 11.5)" />
          </g>
          <g transform="translate(213.5 0)">
            <rect width="40" height="40" fill="#505050" fill-rule="evenodd" />
            <path d="M1.40137 13.09L1.40137 3.44449L6.5249 3.44449L6.37109 4.50748L2.73096 4.50748L2.73096 7.79898L5.87891 7.79898L5.87891 8.8483L2.73096 8.8483L2.73096 13.09L1.40137 13.09Z" fill="#F0F0F0" transform="translate(16.5 11.5)" />
          </g>
          <g transform="translate(259.5 0)">
            <rect width="40" height="40" fill="#505050" fill-rule="evenodd" />
            <path d="M4.95605 3.27701Q5.86523 3.27701 6.52832 3.53678Q7.19482 3.79313 7.85449 4.34L7.06836 5.15348Q6.55225 4.73307 6.07373 4.55191Q5.59863 4.36734 4.95605 4.36734Q4.21436 4.36734 3.58887 4.76725Q2.9668 5.16715 2.57373 6.04215Q2.18408 6.91715 2.18408 8.26041Q2.18408 10.2907 2.84717 11.2306Q3.51367 12.1671 4.81592 12.1671Q5.87891 12.1671 6.65137 11.7331L6.65137 8.82096L4.94238 8.82096L4.78857 7.74088L7.96729 7.74088L7.96729 12.403Q6.4668 13.2575 4.81592 13.2575Q2.91211 13.2575 1.83887 11.986Q0.769043 10.7111 0.769043 8.26041Q0.769043 6.69156 1.33643 5.56705Q1.90381 4.43912 2.86084 3.85807Q3.82129 3.27701 4.95605 3.27701Z" fill="#F0F0F0" transform="translate(15.5 11.5)" />
          </g>
          <g transform="translate(305.5 0)">
            <rect width="40" height="40" fill="#505050" fill-rule="evenodd" />
            <path d="M6.7915 13.09L6.7915 8.56803L2.73096 8.56803L2.73096 13.09L1.40137 13.09L1.40137 3.44449L2.73096 3.44449L2.73096 7.4777L6.7915 7.4777L6.7915 3.44449L8.12109 3.44449L8.12109 13.09L6.7915 13.09Z" fill="#F0F0F0" transform="translate(15 11.5)" />
          </g>
          <g transform="translate(351.5 0)">
            <rect width="40" height="40" fill="#505050" fill-rule="evenodd" />
            <path d="M2.93945 11.7467Q2.93945 13.1754 2.31738 13.8864Q1.69531 14.6007 0.42041 15.0075L0.0683594 14.0436Q0.714355 13.7907 1.03564 13.4967Q1.35693 13.2028 1.4834 12.7824Q1.60986 12.362 1.60986 11.6886L1.60986 3.44449L2.93945 3.44449L2.93945 11.7467Z" fill="#F0F0F0" transform="translate(17.5 11.5)" />
          </g>
          <g transform="translate(397.5 0)">
            <rect width="40" height="40" fill="#505050" fill-rule="evenodd" />
            <path d="M2.73096 3.44449L2.73096 13.09L1.40137 13.09L1.40137 3.44449L2.73096 3.44449ZM7.98096 3.44449L4.32715 7.85367L8.24756 13.09L6.60693 13.09L2.79932 7.93912L6.4668 3.44449L7.98096 3.44449Z" fill="#F0F0F0" transform="translate(15.5 11.5)" />
          </g>
          <g transform="translate(443.5 0)">
            <rect width="40" height="40" fill="#505050" fill-rule="evenodd" />
            <path d="M2.73096 3.44449L2.73096 11.9279L6.69238 11.9279L6.53857 13.09L1.40137 13.09L1.40137 3.44449L2.73096 3.44449Z" fill="#F0F0F0" transform="translate(16.5 11.5)" />
          </g>
          <g transform="translate(489.5 0)">
            <rect width="40" height="40" fill="#505050" fill-rule="evenodd" />
            <g transform="translate(18 3)">
              <path d="M1.66455 11.3127Q2.08496 11.3127 2.36523 11.5929Q2.64551 11.8732 2.64551 12.2765Q2.64551 12.6833 2.36523 12.9704Q2.08496 13.2575 1.66455 13.2575Q1.26123 13.2575 0.980957 12.9704Q0.700684 12.6833 0.700684 12.2765Q0.700684 11.8732 0.980957 11.5929Q1.26123 11.3127 1.66455 11.3127ZM1.66455 6.16178Q2.08496 6.16178 2.36523 6.44205Q2.64551 6.72232 2.64551 7.12564Q2.64551 7.53238 2.36523 7.81949Q2.08496 8.1066 1.66455 8.1066Q1.26123 8.1066 0.980957 7.81949Q0.700684 7.53238 0.700684 7.12564Q0.700684 6.72232 0.980957 6.44205Q1.26123 6.16178 1.66455 6.16178Z" fill="#F0F0F0" />
              <path d="M1.66455 11.3127Q2.08496 11.3127 2.36523 11.5929Q2.64551 11.8732 2.64551 12.2765Q2.64551 12.7106 2.39258 13.2712L1.45605 15.4142L0.533203 15.4142L1.09033 13.09Q0.90918 12.9499 0.803223 12.7414Q0.700684 12.5295 0.700684 12.2765Q0.700684 11.8732 0.980957 11.5929Q1.26123 11.3127 1.66455 11.3127ZM1.66455 6.16178Q2.08496 6.16178 2.36523 6.44205Q2.64551 6.72232 2.64551 7.12564Q2.64551 7.53238 2.36523 7.81949Q2.08496 8.1066 1.66455 8.1066Q1.26123 8.1066 0.980957 7.81949Q0.700684 7.53238 0.700684 7.12564Q0.700684 6.72232 0.980957 6.44205Q1.26123 6.16178 1.66455 6.16178Z" transform="translate(0 16.8)" fill="#F0F0F0" />
            </g>
          </g>
          <g transform="translate(535.5 0)">
            <rect width="40" height="40" fill="#505050" fill-rule="evenodd" />
            <g transform="translate(17 3)">
              <path d="M1.04932 7.11197L0.84082 3.44449L2.2251 3.44449L2.0166 7.11197L1.04932 7.11197ZM3.56836 7.11197L3.35986 3.44449L4.74414 3.44449L4.53564 7.11197L3.56836 7.11197Z" fill="#F0F0F0" />
              <path d="M1.04932 7.11197L0.84082 3.44449L2.2251 3.44449L2.0166 7.11197L1.04932 7.11197Z" transform="translate(0 16.8)" fill="#F0F0F0" />
            </g>
          </g>
          <g transform="translate(581.5 0)">
            <rect width="69.5" height="40" fill="#505050" fill-rule="evenodd" />
            <path d="M2.91577 3.56344Q3.16846 3.56344 3.38379 3.61837L3.22998 4.42696Q3.01465 4.37423 2.81689 4.37423Q2.37524 4.37423 2.10498 4.69942Q1.83691 5.02242 1.68311 5.70577L1.68311 8.415L0.854736 8.415L0.854736 3.6711L1.56665 3.6711L1.64795 4.6357Q1.83691 4.10396 2.15991 3.8337Q2.48291 3.56344 2.91577 3.56344ZM7.64028 5.90353Q7.64028 6.11007 7.6227 6.3276L4.59926 6.3276Q4.652 7.10982 4.99477 7.47896Q5.33754 7.84811 5.87807 7.84811Q6.21865 7.84811 6.50649 7.74923Q6.79433 7.65035 7.11074 7.43502L7.47109 7.9294Q6.71303 8.52267 5.81435 8.52267Q4.82338 8.52267 4.26967 7.87447Q3.71596 7.22628 3.71596 6.09249Q3.71596 5.35421 3.95546 4.78292Q4.19497 4.21163 4.63881 3.88863Q5.08486 3.56344 5.68691 3.56344Q6.63393 3.56344 7.1371 4.18526Q7.64028 4.80709 7.64028 5.90353ZM6.8229 5.66183Q6.8229 4.9587 6.54384 4.58956Q6.26479 4.22042 5.70669 4.22042Q4.68935 4.22042 4.59926 5.71456L6.8229 5.71456L6.8229 5.66183ZM11.3588 8.19967Q10.8907 8.52267 10.2953 8.52267Q9.69323 8.52267 9.35485 8.1777Q9.01867 7.83053 9.01867 7.17354L9.01867 4.31051L8.1903 4.31051L8.1903 3.6711L9.01867 3.6711L9.01867 2.60104L9.84704 2.50216L9.84704 3.6711L10.972 3.6711L10.8819 4.31051L9.84704 4.31051L9.84704 7.13619Q9.84704 7.50533 9.97668 7.67232Q10.1063 7.83932 10.4139 7.83932Q10.693 7.83932 11.0423 7.65035L11.3588 8.19967ZM15.7415 8.415L15.0296 8.415L14.9659 7.67672Q14.6978 8.11837 14.3463 8.32052Q13.9947 8.52267 13.4915 8.52267Q12.8697 8.52267 12.5182 8.14474Q12.1688 7.76681 12.1688 7.07467L12.1688 3.6711L12.995 3.6711L12.995 6.98458Q12.995 7.47018 13.1663 7.67232Q13.3377 7.87447 13.7245 7.87447Q14.4188 7.87447 14.9132 7.05709L14.9132 3.6711L15.7415 3.6711L15.7415 8.415ZM19.5118 3.56344Q19.7645 3.56344 19.9798 3.61837L19.826 4.42696Q19.6106 4.37423 19.4129 4.37423Q18.9712 4.37423 18.701 4.69942Q18.4329 5.02242 18.2791 5.70577L18.2791 8.415L17.4507 8.415L17.4507 3.6711L18.1626 3.6711L18.2439 4.6357Q18.4329 4.10396 18.7559 3.8337Q19.0789 3.56344 19.5118 3.56344ZM23.1572 3.56344Q23.8053 3.56344 24.1701 3.95235Q24.5348 4.33907 24.5348 5.01363L24.5348 8.415L23.7065 8.415L23.7065 5.13009Q23.7065 4.62691 23.5175 4.42037Q23.3285 4.21163 22.9594 4.21163Q22.5815 4.21163 22.2936 4.42916Q22.0058 4.64449 21.7531 5.04879L21.7531 8.415L20.9247 8.415L20.9247 3.6711L21.6366 3.6711L21.707 4.37423Q21.9596 3.9963 22.3332 3.78097Q22.7067 3.56344 23.1572 3.56344Z" fill="#F0F0F0" transform="translate(39.5 25)" />
          </g>
        </g>
        <g transform="translate(0 184)">
          <g>
            <rect width="92.5" height="40" fill="#505050" fill-rule="evenodd" />
            <path d="M2.14233 3.56344Q2.62793 3.56344 3.01465 3.69967Q3.40137 3.8337 3.75293 4.10396L3.40137 4.62691Q3.07837 4.41817 2.78613 4.3193Q2.4939 4.22042 2.1687 4.22042Q1.7644 4.22042 1.5293 4.38741Q1.29639 4.5544 1.29639 4.84225Q1.29639 5.13009 1.51611 5.29269Q1.73804 5.45309 2.31372 5.60689Q3.10474 5.80465 3.49585 6.14742Q3.88696 6.488 3.88696 7.08346Q3.88696 7.78438 3.34204 8.15353Q2.79932 8.52267 2.01709 8.52267Q0.936035 8.52267 0.224121 7.90304L0.665771 7.39767Q1.27002 7.85689 1.99731 7.85689Q2.46533 7.85689 2.73999 7.66354Q3.01465 7.47018 3.01465 7.13619Q3.01465 6.89449 2.91577 6.74728Q2.81689 6.59786 2.573 6.4858Q2.3313 6.37154 1.86328 6.2463Q1.10742 6.04854 0.769043 5.71676Q0.432861 5.38277 0.432861 4.86861Q0.432861 4.49947 0.652588 4.19845Q0.872314 3.89742 1.26343 3.73043Q1.65674 3.56344 2.14233 3.56344ZM7.29016 3.56344Q7.93835 3.56344 8.3031 3.95235Q8.66784 4.33907 8.66784 5.01363L8.66784 8.415L7.83947 8.415L7.83947 5.13009Q7.83947 4.62691 7.64611 4.42037Q7.45276 4.21163 7.08361 4.21163Q6.71447 4.21163 6.42663 4.42916Q6.13879 4.64449 5.88611 5.04L5.88611 8.415L5.05774 8.415L5.05774 1.77267L5.88611 1.68258L5.88611 4.32809Q6.44421 3.56344 7.29016 3.56344ZM11.1601 3.6711L11.1601 8.415L10.3317 8.415L10.3317 3.6711L11.1601 3.6711ZM10.7382 1.39474Q10.9997 1.39474 11.1601 1.55733Q11.3227 1.71993 11.3227 1.96163Q11.3227 2.20553 11.1601 2.36373Q10.9997 2.51974 10.7382 2.51974Q10.4855 2.51974 10.3229 2.36373Q10.1625 2.20553 10.1625 1.96163Q10.1625 1.71993 10.3229 1.55733Q10.4855 1.39474 10.7382 1.39474ZM14.4803 2.33077Q14.1024 2.33077 13.9398 2.49776Q13.7794 2.66476 13.7794 3.01412L13.7794 3.6711L14.9308 3.6711L14.8407 4.31051L13.7794 4.31051L13.7794 8.415L12.951 8.415L12.951 4.31051L12.1051 4.31051L12.1051 3.6711L12.951 3.6711L12.951 3.02511Q12.951 2.41207 13.3421 2.03854Q13.7333 1.665 14.4364 1.665Q14.7594 1.665 15.0165 1.72433Q15.2735 1.78146 15.5702 1.9089L15.3087 2.51095Q14.9044 2.33077 14.4803 2.33077ZM18.2798 8.19967Q17.8117 8.52267 17.2163 8.52267Q16.6142 8.52267 16.2758 8.1777Q15.9397 7.83053 15.9397 7.17354L15.9397 4.31051L15.1113 4.31051L15.1113 3.6711L15.9397 3.6711L15.9397 2.60104L16.768 2.50216L16.768 3.6711L17.893 3.6711L17.8029 4.31051L16.768 4.31051L16.768 7.13619Q16.768 7.50533 16.8977 7.67232Q17.0273 7.83932 17.3349 7.83932Q17.614 7.83932 17.9633 7.65035L18.2798 8.19967Z" fill="#F0F0F0" transform="translate(4 25)" />
          </g>
          <g transform="translate(98.5 0)">
            <rect width="40" height="40" fill="#505050" fill-rule="evenodd" />
            <path d="M6.67871 3.44449L6.67871 4.52115L1.90381 11.9552L6.67871 11.9552L6.5249 13.09L0.42041 13.09L0.42041 12.027L5.23633 4.56559L0.922852 4.56559L0.922852 3.44449L6.67871 3.44449Z" fill="#F0F0F0" transform="translate(16 11.5)" />
          </g>
          <g transform="translate(144.5 0)">
            <rect width="40" height="40" fill="#505050" fill-rule="evenodd" />
            <path d="M4.54932 7.88102L7.48877 13.09L5.97803 13.09L3.75293 8.82096L1.49707 13.09L0.0683594 13.09L2.9668 7.95279L0.321289 3.44449L1.83545 3.44449L3.78027 7.07096L5.73877 3.44449L7.16748 3.44449L4.54932 7.88102Z" fill="#F0F0F0" transform="translate(16 11.5)" />
          </g>
          <g transform="translate(190.5 0)">
            <rect width="40" height="40" fill="#505050" fill-rule="evenodd" />
            <path d="M4.7749 3.27701Q5.64307 3.27701 6.23779 3.5026Q6.83252 3.72477 7.44775 4.22721L6.71973 5.0817Q5.83789 4.36734 4.85693 4.36734Q3.65381 4.36734 2.91895 5.29361Q2.18408 6.21646 2.18408 8.26041Q2.18408 10.2497 2.91211 11.193Q3.64014 12.1364 4.84326 12.1364Q5.4585 12.1364 5.91992 11.9279Q6.38477 11.7194 6.90088 11.34L7.56055 12.1808Q7.11279 12.6422 6.41211 12.9499Q5.71143 13.2575 4.80225 13.2575Q3.62646 13.2575 2.70703 12.6764Q1.79102 12.0954 1.27832 10.9709Q0.769043 9.84293 0.769043 8.26041Q0.769043 6.67789 1.30225 5.55338Q1.83545 4.42545 2.74463 3.85123Q3.65381 3.27701 4.7749 3.27701Z" fill="#F0F0F0" transform="translate(16 11.5)" />
          </g>
          <g transform="translate(236.5 0)">
            <rect width="40" height="40" fill="#505050" fill-rule="evenodd" />
            <path d="M7.70068 3.44449L4.62109 13.09L3.19238 13.09L0.0854492 3.44449L1.51074 3.44449L3.93408 11.6476L6.35742 3.44449L7.70068 3.44449Z" fill="#F0F0F0" transform="translate(16 11.5)" />
          </g>
          <g transform="translate(282.5 0)">
            <rect width="40" height="40" fill="#505050" fill-rule="evenodd" />
            <path d="M5.65674 7.99381Q6.65137 8.16129 7.2666 8.69449Q7.88184 9.2277 7.88184 10.3454Q7.88184 13.09 4.06055 13.09L1.40137 13.09L1.40137 3.44449L3.68115 3.44449Q5.5166 3.44449 6.4873 4.04605Q7.46143 4.64762 7.46143 5.8815Q7.46143 6.71891 6.93506 7.27945Q6.41211 7.84 5.65674 7.99381ZM2.73096 4.49381L2.73096 7.53238L4.18701 7.53238Q5.02441 7.53238 5.56445 7.12564Q6.10449 6.71891 6.10449 5.97721Q6.10449 5.13639 5.53711 4.8151Q4.96973 4.49381 3.82129 4.49381L2.73096 4.49381ZM4.06055 12.027Q5.23633 12.027 5.8584 11.6784Q6.48047 11.3263 6.48047 10.3454Q6.48047 9.39518 5.87891 8.97477Q5.27734 8.55436 4.31348 8.55436L2.73096 8.55436L2.73096 12.027L4.06055 12.027Z" fill="#F0F0F0" transform="translate(15.5 11.5)" />
          </g>
          <g transform="translate(328.5 0)">
            <rect width="40" height="40" fill="#505050" fill-rule="evenodd" />
            <path d="M8.16211 13.09L6.38477 13.09L2.46436 4.90055Q2.54639 5.86441 2.59424 6.68473Q2.64551 7.50504 2.64551 8.66715L2.64551 13.09L1.40137 13.09L1.40137 3.44449L3.1377 3.44449L7.09912 11.6476Q7.05469 11.2853 6.98291 10.3761Q6.91455 9.46354 6.91455 8.70816L6.91455 3.44449L8.16211 3.44449L8.16211 13.09Z" fill="#F0F0F0" transform="translate(15 11.5)" />
          </g>
          <g transform="translate(374.5 0)">
            <rect width="40" height="40" fill="#505050" fill-rule="evenodd" />
            <path d="M10.0249 13.09L8.73633 13.09L8.40137 8.73551Q8.18945 6.17545 8.16211 4.80143L6.07715 11.9997L4.82959 11.9997L2.63184 4.78775Q2.63184 6.53775 2.45068 8.83463L2.12939 13.09L0.868164 13.09L1.66455 3.44449L3.45898 3.44449L5.48926 10.4582L7.42041 3.44449L9.2251 3.44449L10.0249 13.09Z" fill="#F0F0F0" transform="translate(14.5 11.5)" />
          </g>
          <g transform="translate(420.5 0)">
            <rect width="40" height="40" fill="#505050" fill-rule="evenodd" />
            <g transform="translate(16.5 3)">
              <path d="M5.83789 5.37564L6.29932 6.43863L1.72266 8.42789L6.29932 10.4445L5.83789 11.4801L0.700684 9.08756L0.700684 7.77164L5.83789 5.37564Z" fill="#F0F0F0" />
              <path d="M1.66455 11.3127Q2.08496 11.3127 2.36523 11.5929Q2.64551 11.8732 2.64551 12.2765Q2.64551 12.7106 2.39258 13.2712L1.45605 15.4142L0.533203 15.4142L1.09033 13.09Q0.90918 12.9499 0.803223 12.7414Q0.700684 12.5295 0.700684 12.2765Q0.700684 11.8732 0.980957 11.5929Q1.26123 11.3127 1.66455 11.3127Z" transform="translate(0 16.8)" fill="#F0F0F0" />
            </g>
          </g>
          <g transform="translate(466.5 0)">
            <rect width="40" height="40" fill="#505050" fill-rule="evenodd" />
            <g transform="translate(16.5 3)">
              <path d="M1.16211 5.37564L6.29932 7.77164L6.29932 9.08756L1.16211 11.4801L0.700684 10.4445L5.27734 8.42789L0.700684 6.43863L1.16211 5.37564Z" fill="#F0F0F0" />
              <path d="M1.66455 11.3127Q2.08496 11.3127 2.36523 11.5929Q2.64551 11.8732 2.64551 12.2765Q2.64551 12.6833 2.36523 12.9704Q2.08496 13.2575 1.66455 13.2575Q1.26123 13.2575 0.980957 12.9704Q0.700684 12.6833 0.700684 12.2765Q0.700684 11.8732 0.980957 11.5929Q1.26123 11.3127 1.66455 11.3127Z" transform="translate(0 16.8)" fill="#F0F0F0" />
            </g>
          </g>
          <g transform="translate(512.5 0)">
            <rect width="40" height="40" fill="#505050" fill-rule="evenodd" />
            <g transform="translate(16 3)">
              <path d="M3.33252 3.27701Q4.17334 3.27701 4.78174 3.57779Q5.39014 3.87857 5.69775 4.38443Q6.00537 4.88688 6.00537 5.46109Q6.00537 6.00455 5.81738 6.39078Q5.62939 6.77701 5.36279 7.01627Q5.09619 7.25211 4.64844 7.5734Q4.06055 7.98014 3.7666 8.32535Q3.47266 8.66715 3.47266 9.24137L3.47266 9.87027L2.19775 9.87027L2.19775 9.16959Q2.19775 8.56803 2.39941 8.14762Q2.60449 7.72721 2.88477 7.4777Q3.16504 7.22477 3.62646 6.90348Q4.15967 6.55143 4.40918 6.27115Q4.66211 5.99088 4.66211 5.54313Q4.66211 4.96891 4.28271 4.65445Q3.90674 4.34 3.24707 4.34Q2.12939 4.34 1.30225 5.3483L0.42041 4.66129Q1.59619 3.27701 3.33252 3.27701ZM2.87109 11.3127Q3.2915 11.3127 3.56836 11.5929Q3.84863 11.8732 3.84863 12.2765Q3.84863 12.6833 3.56836 12.9704Q3.2915 13.2575 2.87109 13.2575Q2.46436 13.2575 2.18408 12.9704Q1.90381 12.6833 1.90381 12.2765Q1.90381 11.8732 2.18408 11.5929Q2.46436 11.3127 2.87109 11.3127Z" fill="#F0F0F0" />
              <path d="M4.7168 1.79361L5.81055 2.04313L2.57715 14.5461L1.46973 14.2795L4.7168 1.79361Z" transform="translate(0 16.8)" fill="#F0F0F0" />
            </g>
          </g>
          <g transform="translate(558.5 0)">
            <rect width="92.5" height="40" fill="#505050" fill-rule="evenodd" />
            <path d="M2.14233 3.56344Q2.62793 3.56344 3.01465 3.69967Q3.40137 3.8337 3.75293 4.10396L3.40137 4.62691Q3.07837 4.41817 2.78613 4.3193Q2.4939 4.22042 2.1687 4.22042Q1.7644 4.22042 1.5293 4.38741Q1.29639 4.5544 1.29639 4.84225Q1.29639 5.13009 1.51611 5.29269Q1.73804 5.45309 2.31372 5.60689Q3.10474 5.80465 3.49585 6.14742Q3.88696 6.488 3.88696 7.08346Q3.88696 7.78438 3.34204 8.15353Q2.79932 8.52267 2.01709 8.52267Q0.936035 8.52267 0.224121 7.90304L0.665771 7.39767Q1.27002 7.85689 1.99731 7.85689Q2.46533 7.85689 2.73999 7.66354Q3.01465 7.47018 3.01465 7.13619Q3.01465 6.89449 2.91577 6.74728Q2.81689 6.59786 2.573 6.4858Q2.3313 6.37154 1.86328 6.2463Q1.10742 6.04854 0.769043 5.71676Q0.432861 5.38277 0.432861 4.86861Q0.432861 4.49947 0.652588 4.19845Q0.872314 3.89742 1.26343 3.73043Q1.65674 3.56344 2.14233 3.56344ZM7.29016 3.56344Q7.93835 3.56344 8.3031 3.95235Q8.66784 4.33907 8.66784 5.01363L8.66784 8.415L7.83947 8.415L7.83947 5.13009Q7.83947 4.62691 7.64611 4.42037Q7.45276 4.21163 7.08361 4.21163Q6.71447 4.21163 6.42663 4.42916Q6.13879 4.64449 5.88611 5.04L5.88611 8.415L5.05774 8.415L5.05774 1.77267L5.88611 1.68258L5.88611 4.32809Q6.44421 3.56344 7.29016 3.56344ZM11.1601 3.6711L11.1601 8.415L10.3317 8.415L10.3317 3.6711L11.1601 3.6711ZM10.7382 1.39474Q10.9997 1.39474 11.1601 1.55733Q11.3227 1.71993 11.3227 1.96163Q11.3227 2.20553 11.1601 2.36373Q10.9997 2.51974 10.7382 2.51974Q10.4855 2.51974 10.3229 2.36373Q10.1625 2.20553 10.1625 1.96163Q10.1625 1.71993 10.3229 1.55733Q10.4855 1.39474 10.7382 1.39474ZM14.4803 2.33077Q14.1024 2.33077 13.9398 2.49776Q13.7794 2.66476 13.7794 3.01412L13.7794 3.6711L14.9308 3.6711L14.8407 4.31051L13.7794 4.31051L13.7794 8.415L12.951 8.415L12.951 4.31051L12.1051 4.31051L12.1051 3.6711L12.951 3.6711L12.951 3.02511Q12.951 2.41207 13.3421 2.03854Q13.7333 1.665 14.4364 1.665Q14.7594 1.665 15.0165 1.72433Q15.2735 1.78146 15.5702 1.9089L15.3087 2.51095Q14.9044 2.33077 14.4803 2.33077ZM18.2798 8.19967Q17.8117 8.52267 17.2163 8.52267Q16.6142 8.52267 16.2758 8.1777Q15.9397 7.83053 15.9397 7.17354L15.9397 4.31051L15.1113 4.31051L15.1113 3.6711L15.9397 3.6711L15.9397 2.60104L16.768 2.50216L16.768 3.6711L17.893 3.6711L17.8029 4.31051L16.768 4.31051L16.768 7.13619Q16.768 7.50533 16.8977 7.67232Q17.0273 7.83932 17.3349 7.83932Q17.614 7.83932 17.9633 7.65035L18.2798 8.19967Z" fill="#F0F0F0" transform="translate(69.5 25)" />
          </g>
        </g>
        <g transform="translate(0 230)">
          <g>
            <rect width="40" height="40" fill="#505050" fill-rule="evenodd" />
            <path d="M10.5273 6.37041Q10.5273 7.76836 9.82666 8.93047Q9.12939 10.0926 7.97412 10.7454Q6.81885 11.3948 5.48926 11.3948Q4.11523 11.3948 2.9668 10.7522Q1.81836 10.1097 1.14502 8.94072Q0.475098 7.76836 0.475098 6.34307Q0.475098 4.95537 1.18262 3.8001Q1.89014 2.64482 3.05225 2.00225Q4.21436 1.35967 5.5166 1.35967Q6.85986 1.35967 8.0083 2.00225Q9.15674 2.64482 9.84033 3.80693Q10.5273 4.96904 10.5273 6.37041ZM3.2334 8.79033Q2.4917 9.01592 2.08496 9.25518Q2.93945 10.2464 4.12891 10.6258Q3.56836 9.96953 3.2334 8.79033ZM7.79639 8.82109Q7.4751 9.9251 6.90088 10.6121Q8.07666 10.219 8.89014 9.29619Q8.42871 9.01592 7.79639 8.82109ZM7.29395 8.66729Q6.38477 8.45537 5.57129 8.45537Q4.67578 8.45537 3.7085 8.66729Q4.00244 9.64482 4.49121 10.2498Q4.9834 10.8514 5.48926 10.8514Q5.9917 10.8514 6.49414 10.2498Q7 9.64482 7.29395 8.66729ZM7.76904 3.97441Q8.45605 3.76592 8.91748 3.49932Q8.06299 2.50469 6.84619 2.12871Q7.40674 2.78496 7.76904 3.97441ZM3.20605 3.96074Q3.54102 2.84307 4.12891 2.14238Q2.95312 2.51836 2.1123 3.47197Q2.60449 3.76592 3.20605 3.96074ZM3.7085 4.08721Q4.62109 4.29912 5.43115 4.29912Q6.38477 4.29912 7.28027 4.10088Q6.97266 3.13701 6.45996 2.52861Q5.95068 1.9168 5.48584 1.9168Q5.02441 1.9168 4.50488 2.53545Q3.98877 3.15068 3.7085 4.08721ZM7.61523 6.63701L3.38721 6.63701Q3.41455 7.4334 3.59912 8.18877Q4.63477 7.9666 5.57129 7.9666Q6.53857 7.9666 7.43408 8.1751Q7.58789 7.50518 7.61523 6.63701ZM3.38721 6.04912L7.61523 6.04912Q7.58789 5.30742 7.40674 4.5794Q6.37109 4.80156 5.43115 4.80156Q4.45361 4.80156 3.55469 4.59307Q3.43164 5.15361 3.38721 6.04912ZM2.88477 6.04912Q2.91211 5.26299 3.07959 4.4666Q2.37891 4.25469 1.77734 3.91973Q1.12109 4.88701 1.04932 6.04912L2.88477 6.04912ZM8.12109 6.04912L9.95312 6.04912Q9.88477 4.92803 9.2251 3.91973Q8.70898 4.21367 7.90918 4.45293Q8.10742 5.33477 8.12109 6.04912ZM8.12109 6.63701Q8.09033 7.47441 7.92285 8.30156Q8.68164 8.52715 9.2251 8.84844Q9.89844 7.86748 9.95312 6.63701L8.12109 6.63701ZM2.88477 6.63701L1.04932 6.63701Q1.13477 7.86748 1.77734 8.84844Q2.35156 8.52715 3.09326 8.30156Q2.91211 7.53252 2.88477 6.63701Z" fill="#F0F0F0" transform="translate(4 4)" />
          </g>
          <g transform="translate(46 0)">
            <rect width="40" height="40" fill="#505050" fill-rule="evenodd" />
            <path d="M5.55762 4.39551L3.68457 6.25488L2.86426 5.43457L5.55762 2.74121L6.17285 2.74121L8.85254 5.43457L8.03223 6.25488L6.17285 4.39551L5.55762 4.39551Z" fill="#F0F0F0" transform="translate(4 4)" />
            <path d="M2.00977 2.77156Q2.33789 2.77156 2.61133 2.86727Q2.88477 2.96126 3.13599 3.17146L2.82837 3.57649Q2.63184 3.43636 2.44556 3.37142Q2.26099 3.30477 2.03711 3.30477Q1.58936 3.30477 1.33984 3.66194Q1.09204 4.01741 1.09204 4.7181Q1.09204 5.41878 1.33643 5.75203Q1.58252 6.08357 2.03711 6.08357Q2.25415 6.08357 2.4353 6.01692Q2.61816 5.95027 2.84204 5.8033L3.13599 6.22371Q2.63184 6.62874 2.00977 6.62874Q1.25952 6.62874 0.828857 6.12459Q0.398193 5.62044 0.398193 4.73177Q0.398193 4.14388 0.594727 3.70296Q0.79126 3.26204 1.15186 3.01766Q1.51245 2.77156 2.00977 2.77156ZM5.25678 2.77156Q6.03437 2.77156 6.46503 3.28938Q6.8957 3.80721 6.8957 4.69759Q6.8957 5.27181 6.69916 5.70931Q6.50263 6.14681 6.13178 6.38777Q5.76093 6.62874 5.24995 6.62874Q4.47236 6.62874 4.03828 6.11092Q3.60419 5.5931 3.60419 4.70442Q3.60419 4.13021 3.80073 3.69271Q3.99726 3.25521 4.36811 3.01424Q4.73896 2.77156 5.25678 2.77156ZM5.25678 3.28938Q4.29804 3.28938 4.29804 4.70442Q4.29804 6.11092 5.24995 6.11092Q6.20185 6.11092 6.20185 4.69759Q6.20185 3.28938 5.25678 3.28938ZM9.69512 2.77156Q10.1993 2.77156 10.483 3.07405Q10.7667 3.37483 10.7667 3.89949L10.7667 6.545L10.1224 6.545L10.1224 3.99007Q10.1224 3.59871 9.9754 3.43807Q9.82842 3.27571 9.54132 3.27571Q9.24737 3.27571 9.02349 3.4449Q8.79962 3.61238 8.60308 3.92684L8.60308 6.545L7.9588 6.545L7.9588 2.8553L8.51251 2.8553L8.56719 3.40218Q8.76373 3.10823 9.05425 2.94075Q9.34478 2.77156 9.69512 2.77156ZM13.9236 6.37752Q13.5596 6.62874 13.0964 6.62874Q12.6282 6.62874 12.365 6.36043Q12.1035 6.09041 12.1035 5.57942L12.1035 3.35262L11.4592 3.35262L11.4592 2.8553L12.1035 2.8553L12.1035 2.02303L12.7478 1.94612L12.7478 2.8553L13.6228 2.8553L13.5527 3.35262L12.7478 3.35262L12.7478 5.55037Q12.7478 5.83748 12.8486 5.96736Q12.9495 6.09725 13.1887 6.09725Q13.4058 6.09725 13.6775 5.95027L13.9236 6.37752ZM16.1908 2.77156Q16.3874 2.77156 16.5548 2.81429L16.4352 3.44319Q16.2677 3.40218 16.1139 3.40218Q15.7704 3.40218 15.5602 3.65511Q15.3517 3.90633 15.2321 4.43782L15.2321 6.545L14.5878 6.545L14.5878 2.8553L15.1415 2.8553L15.2047 3.60555Q15.3517 3.19197 15.6029 2.98177Q15.8542 2.77156 16.1908 2.77156ZM18.4658 2.77156Q19.2434 2.77156 19.674 3.28938Q20.1047 3.80721 20.1047 4.69759Q20.1047 5.27181 19.9082 5.70931Q19.7116 6.14681 19.3408 6.38777Q18.9699 6.62874 18.4589 6.62874Q17.6814 6.62874 17.2473 6.11092Q16.8132 5.5931 16.8132 4.70442Q16.8132 4.13021 17.0097 3.69271Q17.2063 3.25521 17.5771 3.01424Q17.948 2.77156 18.4658 2.77156ZM18.4658 3.28938Q17.507 3.28938 17.507 4.70442Q17.507 6.11092 18.4589 6.11092Q19.4109 6.11092 19.4109 4.69759Q19.4109 3.28938 18.4658 3.28938ZM21.9027 6.62874Q21.5455 6.62874 21.3387 6.41512Q21.1336 6.20149 21.1336 5.81697L21.1336 1.3719L21.7762 1.295L21.7762 5.8033Q21.7762 5.95711 21.8292 6.02718Q21.8822 6.09725 22.0086 6.09725Q22.1402 6.09725 22.2462 6.05452L22.4136 6.50228Q22.1829 6.62874 21.9027 6.62874Z" fill="#F0F0F0" transform="translate(4 27)" />
          </g>
          <g transform="translate(92 0)">
            <rect width="40" height="40" fill="#505050" fill-rule="evenodd" />
            <path d="M1.06641 4.94238L5.83789 4.94238L10.8965 11.833L15.0664 11.833L15.0664 12.9951L10.2949 12.9951L5.23633 6.10449L1.06641 6.10449L1.06641 4.94238ZM10.2812 4.94238L15.0664 4.94238L15.0664 6.10449L10.2812 6.10449L10.2812 4.94238Z" fill="#F0F0F0" transform="translate(4 4)" />
            <path d="M2.05078 2.77156Q2.82837 2.77156 3.25903 3.28938Q3.6897 3.80721 3.6897 4.69759Q3.6897 5.27181 3.49316 5.70931Q3.29663 6.14681 2.92578 6.38777Q2.55493 6.62874 2.04395 6.62874Q1.26636 6.62874 0.832275 6.11092Q0.398193 5.5931 0.398193 4.70442Q0.398193 4.13021 0.594727 3.69271Q0.79126 3.25521 1.16211 3.01424Q1.53296 2.77156 2.05078 2.77156ZM2.05078 3.28938Q1.09204 3.28938 1.09204 4.70442Q1.09204 6.11092 2.04395 6.11092Q2.99585 6.11092 2.99585 4.69759Q2.99585 3.28938 2.05078 3.28938ZM6.4464 2.77156Q7.15392 2.77156 7.48204 3.27571Q7.81188 3.77986 7.81188 4.69759Q7.81188 5.56575 7.43419 6.09725Q7.05651 6.62874 6.36266 6.62874Q5.74742 6.62874 5.39708 6.20833L5.39708 7.95833L4.7528 8.03523L4.7528 2.8553L5.30651 2.8553L5.35436 3.35262Q5.55773 3.07234 5.84484 2.92195Q6.13195 2.77156 6.4464 2.77156ZM6.20885 6.10408Q7.11974 6.10408 7.11974 4.69759Q7.11974 3.28255 6.28575 3.28255Q6.01232 3.28255 5.78844 3.4449Q5.56456 3.60555 5.39708 3.85677L5.39708 5.65633Q5.53722 5.87337 5.74742 5.98958Q5.95763 6.10408 6.20885 6.10408ZM10.7736 6.37752Q10.4096 6.62874 9.94644 6.62874Q9.47818 6.62874 9.21499 6.36043Q8.95352 6.09041 8.95352 5.57942L8.95352 3.35262L8.30923 3.35262L8.30923 2.8553L8.95352 2.8553L8.95352 2.02303L9.59781 1.94612L9.59781 2.8553L10.4728 2.8553L10.4027 3.35262L9.59781 3.35262L9.59781 5.55037Q9.59781 5.83748 9.69864 5.96736Q9.79947 6.09725 10.0387 6.09725Q10.2558 6.09725 10.5275 5.95027L10.7736 6.37752ZM12.0821 2.8553L12.0821 6.545L11.4378 6.545L11.4378 2.8553L12.0821 2.8553ZM11.754 1.08479Q11.9573 1.08479 12.0821 1.21126Q12.2085 1.33772 12.2085 1.52571Q12.2085 1.71541 12.0821 1.83846Q11.9573 1.95979 11.754 1.95979Q11.5574 1.95979 11.431 1.83846Q11.3062 1.71541 11.3062 1.52571Q11.3062 1.33772 11.431 1.21126Q11.5574 1.08479 11.754 1.08479ZM14.7978 2.77156Q15.5754 2.77156 16.006 3.28938Q16.4367 3.80721 16.4367 4.69759Q16.4367 5.27181 16.2402 5.70931Q16.0436 6.14681 15.6728 6.38777Q15.3019 6.62874 14.7909 6.62874Q14.0134 6.62874 13.5793 6.11092Q13.1452 5.5931 13.1452 4.70442Q13.1452 4.13021 13.3417 3.69271Q13.5383 3.25521 13.9091 3.01424Q14.28 2.77156 14.7978 2.77156ZM14.7978 3.28938Q13.839 3.28938 13.839 4.70442Q13.839 6.11092 14.7909 6.11092Q15.7429 6.11092 15.7429 4.69759Q15.7429 3.28938 14.7978 3.28938ZM19.2361 2.77156Q19.7403 2.77156 20.024 3.07405Q20.3077 3.37483 20.3077 3.89949L20.3077 6.545L19.6634 6.545L19.6634 3.99007Q19.6634 3.59871 19.5164 3.43807Q19.3694 3.27571 19.0823 3.27571Q18.7884 3.27571 18.5645 3.4449Q18.3406 3.61238 18.1441 3.92684L18.1441 6.545L17.4998 6.545L17.4998 2.8553L18.0535 2.8553L18.1082 3.40218Q18.3047 3.10823 18.5953 2.94075Q18.8858 2.77156 19.2361 2.77156Z" fill="#F0F0F0" transform="translate(4 27)" />
          </g>
          <g transform="translate(138 0)">
            <rect width="40" height="40" fill="#505050" fill-rule="evenodd" />
            <path d="M5.98828 8.68848L8.01172 8.68848L8.01172 6.66504L5.98828 6.66504L5.98828 8.68848ZM5.98828 9.7002L5.98828 10.8623Q5.98828 11.7373 5.35596 12.3628Q4.72363 12.9883 3.83496 12.9883Q2.94629 12.9883 2.31738 12.3594Q1.68848 11.7305 1.68848 10.835Q1.68848 9.95996 2.31738 9.32422Q2.94629 8.68848 3.81445 8.68848L4.97656 8.68848L4.97656 6.66504L3.81445 6.66504Q2.94629 6.66504 2.31738 6.0293Q1.68848 5.39355 1.68848 4.51172Q1.68848 3.62305 2.31738 2.99414Q2.94629 2.36523 3.83496 2.36523Q4.72363 2.36523 5.35596 2.99072Q5.98828 3.61621 5.98828 4.49121L5.98828 5.65332L8.01172 5.65332L8.01172 4.49121Q8.01172 3.61621 8.64404 2.99072Q9.27637 2.36523 10.165 2.36523Q11.0605 2.36523 11.686 2.99414Q12.3115 3.62305 12.3115 4.51172Q12.3115 5.39355 11.686 6.0293Q11.0605 6.66504 10.1855 6.66504L9.02344 6.66504L9.02344 8.68848L10.1855 8.68848Q11.0605 8.68848 11.686 9.32422Q12.3115 9.95996 12.3115 10.835Q12.3115 11.7305 11.686 12.3594Q11.0605 12.9883 10.165 12.9883Q9.27637 12.9883 8.64404 12.3628Q8.01172 11.7373 8.01172 10.8623L8.01172 9.7002L5.98828 9.7002ZM4.97656 5.65332L4.97656 4.51172Q4.97656 4.04004 4.6416 3.7085Q4.30664 3.37695 3.83496 3.37695Q3.37012 3.37695 3.03516 3.7085Q2.7002 4.04004 2.7002 4.51172Q2.7002 4.9834 3.03516 5.31836Q3.37012 5.65332 3.8418 5.65332L4.97656 5.65332ZM4.97656 9.7002L3.8418 9.7002Q3.37012 9.7002 3.03516 10.0352Q2.7002 10.3701 2.7002 10.835Q2.7002 11.3066 3.03516 11.6416Q3.37012 11.9766 3.8418 11.9766Q4.30664 11.9766 4.6416 11.6416Q4.97656 11.3066 4.97656 10.8418L4.97656 9.7002ZM9.02344 5.65332L10.165 5.65332Q10.6299 5.65332 10.9648 5.31836Q11.2998 4.9834 11.2998 4.51172Q11.2998 4.04004 10.9683 3.7085Q10.6367 3.37695 10.165 3.37695Q9.69336 3.37695 9.3584 3.7085Q9.02344 4.04004 9.02344 4.51172L9.02344 5.65332ZM9.02344 9.7002L9.02344 10.8418Q9.02344 11.3066 9.3584 11.6416Q9.69336 11.9766 10.165 11.9766Q10.6367 11.9766 10.9683 11.6416Q11.2998 11.3066 11.2998 10.835Q11.2998 10.3701 10.9648 10.0352Q10.6299 9.7002 10.165 9.7002L9.02344 9.7002Z" fill="#F0F0F0" transform="translate(4 4)" />
            <path d="M2.00977 2.77156Q2.33789 2.77156 2.61133 2.86727Q2.88477 2.96126 3.13599 3.17146L2.82837 3.57649Q2.63184 3.43636 2.44556 3.37142Q2.26099 3.30477 2.03711 3.30477Q1.58936 3.30477 1.33984 3.66194Q1.09204 4.01741 1.09204 4.7181Q1.09204 5.41878 1.33643 5.75203Q1.58252 6.08357 2.03711 6.08357Q2.25415 6.08357 2.4353 6.01692Q2.61816 5.95027 2.84204 5.8033L3.13599 6.22371Q2.63184 6.62874 2.00977 6.62874Q1.25952 6.62874 0.828857 6.12459Q0.398193 5.62044 0.398193 4.73177Q0.398193 4.14388 0.594727 3.70296Q0.79126 3.26204 1.15186 3.01766Q1.51245 2.77156 2.00977 2.77156ZM5.25678 2.77156Q6.03437 2.77156 6.46503 3.28938Q6.8957 3.80721 6.8957 4.69759Q6.8957 5.27181 6.69916 5.70931Q6.50263 6.14681 6.13178 6.38777Q5.76093 6.62874 5.24995 6.62874Q4.47236 6.62874 4.03828 6.11092Q3.60419 5.5931 3.60419 4.70442Q3.60419 4.13021 3.80073 3.69271Q3.99726 3.25521 4.36811 3.01424Q4.73896 2.77156 5.25678 2.77156ZM5.25678 3.28938Q4.29804 3.28938 4.29804 4.70442Q4.29804 6.11092 5.24995 6.11092Q6.20185 6.11092 6.20185 4.69759Q6.20185 3.28938 5.25678 3.28938ZM11.6622 2.77156Q12.1168 2.77156 12.3902 3.07747Q12.6636 3.38167 12.6636 3.89949L12.6636 6.545L12.0193 6.545L12.0193 3.99007Q12.0193 3.27571 11.5015 3.27571Q11.2281 3.27571 11.0384 3.43294Q10.8504 3.59017 10.6334 3.92684L10.6334 6.545L9.98907 6.545L9.98907 3.99007Q9.98907 3.27571 9.47125 3.27571Q9.19097 3.27571 9.00128 3.43807Q8.81329 3.59871 8.60308 3.92684L8.60308 6.545L7.9588 6.545L7.9588 2.8553L8.51251 2.8553L8.56719 3.39534Q8.98077 2.77156 9.63189 2.77156Q9.9754 2.77156 10.2164 2.94759Q10.4573 3.1219 10.5633 3.43636Q10.7803 3.11507 11.0418 2.94417Q11.305 2.77156 11.6622 2.77156ZM17.6612 2.77156Q18.1158 2.77156 18.3892 3.07747Q18.6626 3.38167 18.6626 3.89949L18.6626 6.545L18.0183 6.545L18.0183 3.99007Q18.0183 3.27571 17.5005 3.27571Q17.2271 3.27571 17.0374 3.43294Q16.8494 3.59017 16.6324 3.92684L16.6324 6.545L15.9881 6.545L15.9881 3.99007Q15.9881 3.27571 15.4702 3.27571Q15.19 3.27571 15.0003 3.43807Q14.8123 3.59871 14.6021 3.92684L14.6021 6.545L13.9578 6.545L13.9578 2.8553L14.5115 2.8553L14.5662 3.39534Q14.9798 2.77156 15.6309 2.77156Q15.9744 2.77156 16.2154 2.94759Q16.4563 3.1219 16.5623 3.43636Q16.7793 3.11507 17.0408 2.94417Q17.304 2.77156 17.6612 2.77156ZM22.4417 5.68367Q22.4417 5.90755 22.5186 6.01692Q22.5955 6.12459 22.7493 6.18099L22.6023 6.62874Q22.3152 6.59456 22.1409 6.4681Q21.9666 6.34163 21.8828 6.07674Q21.5103 6.62874 20.7822 6.62874Q20.2371 6.62874 19.9209 6.32112Q19.6065 6.01351 19.6065 5.51619Q19.6065 4.9283 20.0303 4.61385Q20.4541 4.29769 21.2317 4.29769L21.7974 4.29769L21.7974 4.02425Q21.7974 3.63289 21.6077 3.46541Q21.4197 3.29622 21.0283 3.29622Q20.6216 3.29622 20.0337 3.49275L19.8731 3.02449Q20.5584 2.77156 21.1462 2.77156Q21.7974 2.77156 22.1187 3.09114Q22.4417 3.40901 22.4417 3.9969L22.4417 5.68367ZM20.9292 6.14681Q21.4829 6.14681 21.7974 5.57259L21.7974 4.72493L21.3154 4.72493Q20.2935 4.72493 20.2935 5.4803Q20.2935 5.81014 20.4541 5.97933Q20.6148 6.14681 20.9292 6.14681ZM25.5011 2.77156Q26.0053 2.77156 26.289 3.07405Q26.5727 3.37483 26.5727 3.89949L26.5727 6.545L25.9284 6.545L25.9284 3.99007Q25.9284 3.59871 25.7814 3.43807Q25.6344 3.27571 25.3473 3.27571Q25.0534 3.27571 24.8295 3.4449Q24.6056 3.61238 24.4091 3.92684L24.4091 6.545L23.7648 6.545L23.7648 2.8553L24.3185 2.8553L24.3732 3.40218Q24.5697 3.10823 24.8603 2.94075Q25.1508 2.77156 25.5011 2.77156ZM30.7225 1.3719L30.7225 6.545L30.1568 6.545L30.0936 6.03401Q29.9107 6.31429 29.6373 6.47151Q29.3656 6.62874 29.0289 6.62874Q28.3709 6.62874 28.0035 6.11092Q27.6361 5.5931 27.6361 4.7181Q27.6361 4.15071 27.8104 3.70979Q27.9864 3.26888 28.3146 3.02107Q28.6444 2.77156 29.0853 2.77156Q29.6527 2.77156 30.0782 3.22615L30.0782 1.295L30.7225 1.3719ZM29.169 6.11775Q29.463 6.11775 29.6732 5.98104Q29.8834 5.84432 30.0782 5.57259L30.0782 3.76619Q29.8971 3.52864 29.6903 3.4056Q29.4835 3.28255 29.2254 3.28255Q28.7982 3.28255 28.5624 3.63973Q28.3282 3.9969 28.3282 4.70442Q28.3282 5.41878 28.5453 5.76912Q28.7623 6.11775 29.169 6.11775Z" fill="#F0F0F0" transform="translate(4 27)" />
          </g>
          <g transform="translate(184 0)">
            <rect width="237" height="40" fill="#505050" fill-rule="evenodd" />
          </g>
          <g transform="translate(427 0)">
            <rect width="40" height="40" fill="#505050" fill-rule="evenodd" />
            <path d="M5.98828 8.68848L8.01172 8.68848L8.01172 6.66504L5.98828 6.66504L5.98828 8.68848ZM5.98828 9.7002L5.98828 10.8623Q5.98828 11.7373 5.35596 12.3628Q4.72363 12.9883 3.83496 12.9883Q2.94629 12.9883 2.31738 12.3594Q1.68848 11.7305 1.68848 10.835Q1.68848 9.95996 2.31738 9.32422Q2.94629 8.68848 3.81445 8.68848L4.97656 8.68848L4.97656 6.66504L3.81445 6.66504Q2.94629 6.66504 2.31738 6.0293Q1.68848 5.39355 1.68848 4.51172Q1.68848 3.62305 2.31738 2.99414Q2.94629 2.36523 3.83496 2.36523Q4.72363 2.36523 5.35596 2.99072Q5.98828 3.61621 5.98828 4.49121L5.98828 5.65332L8.01172 5.65332L8.01172 4.49121Q8.01172 3.61621 8.64404 2.99072Q9.27637 2.36523 10.165 2.36523Q11.0605 2.36523 11.686 2.99414Q12.3115 3.62305 12.3115 4.51172Q12.3115 5.39355 11.686 6.0293Q11.0605 6.66504 10.1855 6.66504L9.02344 6.66504L9.02344 8.68848L10.1855 8.68848Q11.0605 8.68848 11.686 9.32422Q12.3115 9.95996 12.3115 10.835Q12.3115 11.7305 11.686 12.3594Q11.0605 12.9883 10.165 12.9883Q9.27637 12.9883 8.64404 12.3628Q8.01172 11.7373 8.01172 10.8623L8.01172 9.7002L5.98828 9.7002ZM4.97656 5.65332L4.97656 4.51172Q4.97656 4.04004 4.6416 3.7085Q4.30664 3.37695 3.83496 3.37695Q3.37012 3.37695 3.03516 3.7085Q2.7002 4.04004 2.7002 4.51172Q2.7002 4.9834 3.03516 5.31836Q3.37012 5.65332 3.8418 5.65332L4.97656 5.65332ZM4.97656 9.7002L3.8418 9.7002Q3.37012 9.7002 3.03516 10.0352Q2.7002 10.3701 2.7002 10.835Q2.7002 11.3066 3.03516 11.6416Q3.37012 11.9766 3.8418 11.9766Q4.30664 11.9766 4.6416 11.6416Q4.97656 11.3066 4.97656 10.8418L4.97656 9.7002ZM9.02344 5.65332L10.165 5.65332Q10.6299 5.65332 10.9648 5.31836Q11.2998 4.9834 11.2998 4.51172Q11.2998 4.04004 10.9683 3.7085Q10.6367 3.37695 10.165 3.37695Q9.69336 3.37695 9.3584 3.7085Q9.02344 4.04004 9.02344 4.51172L9.02344 5.65332ZM9.02344 9.7002L9.02344 10.8418Q9.02344 11.3066 9.3584 11.6416Q9.69336 11.9766 10.165 11.9766Q10.6367 11.9766 10.9683 11.6416Q11.2998 11.3066 11.2998 10.835Q11.2998 10.3701 10.9648 10.0352Q10.6299 9.7002 10.165 9.7002L9.02344 9.7002Z" fill="#F0F0F0" transform="translate(4 4)" />
            <path d="M2.00977 2.77156Q2.33789 2.77156 2.61133 2.86727Q2.88477 2.96126 3.13599 3.17146L2.82837 3.57649Q2.63184 3.43636 2.44556 3.37142Q2.26099 3.30477 2.03711 3.30477Q1.58936 3.30477 1.33984 3.66194Q1.09204 4.01741 1.09204 4.7181Q1.09204 5.41878 1.33643 5.75203Q1.58252 6.08357 2.03711 6.08357Q2.25415 6.08357 2.4353 6.01692Q2.61816 5.95027 2.84204 5.8033L3.13599 6.22371Q2.63184 6.62874 2.00977 6.62874Q1.25952 6.62874 0.828857 6.12459Q0.398193 5.62044 0.398193 4.73177Q0.398193 4.14388 0.594727 3.70296Q0.79126 3.26204 1.15186 3.01766Q1.51245 2.77156 2.00977 2.77156ZM5.25678 2.77156Q6.03437 2.77156 6.46503 3.28938Q6.8957 3.80721 6.8957 4.69759Q6.8957 5.27181 6.69916 5.70931Q6.50263 6.14681 6.13178 6.38777Q5.76093 6.62874 5.24995 6.62874Q4.47236 6.62874 4.03828 6.11092Q3.60419 5.5931 3.60419 4.70442Q3.60419 4.13021 3.80073 3.69271Q3.99726 3.25521 4.36811 3.01424Q4.73896 2.77156 5.25678 2.77156ZM5.25678 3.28938Q4.29804 3.28938 4.29804 4.70442Q4.29804 6.11092 5.24995 6.11092Q6.20185 6.11092 6.20185 4.69759Q6.20185 3.28938 5.25678 3.28938ZM11.6622 2.77156Q12.1168 2.77156 12.3902 3.07747Q12.6636 3.38167 12.6636 3.89949L12.6636 6.545L12.0193 6.545L12.0193 3.99007Q12.0193 3.27571 11.5015 3.27571Q11.2281 3.27571 11.0384 3.43294Q10.8504 3.59017 10.6334 3.92684L10.6334 6.545L9.98907 6.545L9.98907 3.99007Q9.98907 3.27571 9.47125 3.27571Q9.19097 3.27571 9.00128 3.43807Q8.81329 3.59871 8.60308 3.92684L8.60308 6.545L7.9588 6.545L7.9588 2.8553L8.51251 2.8553L8.56719 3.39534Q8.98077 2.77156 9.63189 2.77156Q9.9754 2.77156 10.2164 2.94759Q10.4573 3.1219 10.5633 3.43636Q10.7803 3.11507 11.0418 2.94417Q11.305 2.77156 11.6622 2.77156ZM17.6612 2.77156Q18.1158 2.77156 18.3892 3.07747Q18.6626 3.38167 18.6626 3.89949L18.6626 6.545L18.0183 6.545L18.0183 3.99007Q18.0183 3.27571 17.5005 3.27571Q17.2271 3.27571 17.0374 3.43294Q16.8494 3.59017 16.6324 3.92684L16.6324 6.545L15.9881 6.545L15.9881 3.99007Q15.9881 3.27571 15.4702 3.27571Q15.19 3.27571 15.0003 3.43807Q14.8123 3.59871 14.6021 3.92684L14.6021 6.545L13.9578 6.545L13.9578 2.8553L14.5115 2.8553L14.5662 3.39534Q14.9798 2.77156 15.6309 2.77156Q15.9744 2.77156 16.2154 2.94759Q16.4563 3.1219 16.5623 3.43636Q16.7793 3.11507 17.0408 2.94417Q17.304 2.77156 17.6612 2.77156ZM22.4417 5.68367Q22.4417 5.90755 22.5186 6.01692Q22.5955 6.12459 22.7493 6.18099L22.6023 6.62874Q22.3152 6.59456 22.1409 6.4681Q21.9666 6.34163 21.8828 6.07674Q21.5103 6.62874 20.7822 6.62874Q20.2371 6.62874 19.9209 6.32112Q19.6065 6.01351 19.6065 5.51619Q19.6065 4.9283 20.0303 4.61385Q20.4541 4.29769 21.2317 4.29769L21.7974 4.29769L21.7974 4.02425Q21.7974 3.63289 21.6077 3.46541Q21.4197 3.29622 21.0283 3.29622Q20.6216 3.29622 20.0337 3.49275L19.8731 3.02449Q20.5584 2.77156 21.1462 2.77156Q21.7974 2.77156 22.1187 3.09114Q22.4417 3.40901 22.4417 3.9969L22.4417 5.68367ZM20.9292 6.14681Q21.4829 6.14681 21.7974 5.57259L21.7974 4.72493L21.3154 4.72493Q20.2935 4.72493 20.2935 5.4803Q20.2935 5.81014 20.4541 5.97933Q20.6148 6.14681 20.9292 6.14681ZM25.5011 2.77156Q26.0053 2.77156 26.289 3.07405Q26.5727 3.37483 26.5727 3.89949L26.5727 6.545L25.9284 6.545L25.9284 3.99007Q25.9284 3.59871 25.7814 3.43807Q25.6344 3.27571 25.3473 3.27571Q25.0534 3.27571 24.8295 3.4449Q24.6056 3.61238 24.4091 3.92684L24.4091 6.545L23.7648 6.545L23.7648 2.8553L24.3185 2.8553L24.3732 3.40218Q24.5697 3.10823 24.8603 2.94075Q25.1508 2.77156 25.5011 2.77156ZM30.7225 1.3719L30.7225 6.545L30.1568 6.545L30.0936 6.03401Q29.9107 6.31429 29.6373 6.47151Q29.3656 6.62874 29.0289 6.62874Q28.3709 6.62874 28.0035 6.11092Q27.6361 5.5931 27.6361 4.7181Q27.6361 4.15071 27.8104 3.70979Q27.9864 3.26888 28.3146 3.02107Q28.6444 2.77156 29.0853 2.77156Q29.6527 2.77156 30.0782 3.22615L30.0782 1.295L30.7225 1.3719ZM29.169 6.11775Q29.463 6.11775 29.6732 5.98104Q29.8834 5.84432 30.0782 5.57259L30.0782 3.76619Q29.8971 3.52864 29.6903 3.4056Q29.4835 3.28255 29.2254 3.28255Q28.7982 3.28255 28.5624 3.63973Q28.3282 3.9969 28.3282 4.70442Q28.3282 5.41878 28.5453 5.76912Q28.7623 6.11775 29.169 6.11775Z" fill="#F0F0F0" transform="translate(4 27)" />
          </g>
          <g transform="translate(473 0)">
            <rect width="40" height="40" fill="#505050" fill-rule="evenodd" />
            <path d="M1.06641 4.94238L5.83789 4.94238L10.8965 11.833L15.0664 11.833L15.0664 12.9951L10.2949 12.9951L5.23633 6.10449L1.06641 6.10449L1.06641 4.94238ZM10.2812 4.94238L15.0664 4.94238L15.0664 6.10449L10.2812 6.10449L10.2812 4.94238Z" fill="#F0F0F0" transform="translate(4 4)" />
            <path d="M2.05078 2.77156Q2.82837 2.77156 3.25903 3.28938Q3.6897 3.80721 3.6897 4.69759Q3.6897 5.27181 3.49316 5.70931Q3.29663 6.14681 2.92578 6.38777Q2.55493 6.62874 2.04395 6.62874Q1.26636 6.62874 0.832275 6.11092Q0.398193 5.5931 0.398193 4.70442Q0.398193 4.13021 0.594727 3.69271Q0.79126 3.25521 1.16211 3.01424Q1.53296 2.77156 2.05078 2.77156ZM2.05078 3.28938Q1.09204 3.28938 1.09204 4.70442Q1.09204 6.11092 2.04395 6.11092Q2.99585 6.11092 2.99585 4.69759Q2.99585 3.28938 2.05078 3.28938ZM6.4464 2.77156Q7.15392 2.77156 7.48204 3.27571Q7.81188 3.77986 7.81188 4.69759Q7.81188 5.56575 7.43419 6.09725Q7.05651 6.62874 6.36266 6.62874Q5.74742 6.62874 5.39708 6.20833L5.39708 7.95833L4.7528 8.03523L4.7528 2.8553L5.30651 2.8553L5.35436 3.35262Q5.55773 3.07234 5.84484 2.92195Q6.13195 2.77156 6.4464 2.77156ZM6.20885 6.10408Q7.11974 6.10408 7.11974 4.69759Q7.11974 3.28255 6.28575 3.28255Q6.01232 3.28255 5.78844 3.4449Q5.56456 3.60555 5.39708 3.85677L5.39708 5.65633Q5.53722 5.87337 5.74742 5.98958Q5.95763 6.10408 6.20885 6.10408ZM10.7736 6.37752Q10.4096 6.62874 9.94644 6.62874Q9.47818 6.62874 9.21499 6.36043Q8.95352 6.09041 8.95352 5.57942L8.95352 3.35262L8.30923 3.35262L8.30923 2.8553L8.95352 2.8553L8.95352 2.02303L9.59781 1.94612L9.59781 2.8553L10.4728 2.8553L10.4027 3.35262L9.59781 3.35262L9.59781 5.55037Q9.59781 5.83748 9.69864 5.96736Q9.79947 6.09725 10.0387 6.09725Q10.2558 6.09725 10.5275 5.95027L10.7736 6.37752ZM12.0821 2.8553L12.0821 6.545L11.4378 6.545L11.4378 2.8553L12.0821 2.8553ZM11.754 1.08479Q11.9573 1.08479 12.0821 1.21126Q12.2085 1.33772 12.2085 1.52571Q12.2085 1.71541 12.0821 1.83846Q11.9573 1.95979 11.754 1.95979Q11.5574 1.95979 11.431 1.83846Q11.3062 1.71541 11.3062 1.52571Q11.3062 1.33772 11.431 1.21126Q11.5574 1.08479 11.754 1.08479ZM14.7978 2.77156Q15.5754 2.77156 16.006 3.28938Q16.4367 3.80721 16.4367 4.69759Q16.4367 5.27181 16.2402 5.70931Q16.0436 6.14681 15.6728 6.38777Q15.3019 6.62874 14.7909 6.62874Q14.0134 6.62874 13.5793 6.11092Q13.1452 5.5931 13.1452 4.70442Q13.1452 4.13021 13.3417 3.69271Q13.5383 3.25521 13.9091 3.01424Q14.28 2.77156 14.7978 2.77156ZM14.7978 3.28938Q13.839 3.28938 13.839 4.70442Q13.839 6.11092 14.7909 6.11092Q15.7429 6.11092 15.7429 4.69759Q15.7429 3.28938 14.7978 3.28938ZM19.2361 2.77156Q19.7403 2.77156 20.024 3.07405Q20.3077 3.37483 20.3077 3.89949L20.3077 6.545L19.6634 6.545L19.6634 3.99007Q19.6634 3.59871 19.5164 3.43807Q19.3694 3.27571 19.0823 3.27571Q18.7884 3.27571 18.5645 3.4449Q18.3406 3.61238 18.1441 3.92684L18.1441 6.545L17.4998 6.545L17.4998 2.8553L18.0535 2.8553L18.1082 3.40218Q18.3047 3.10823 18.5953 2.94075Q18.8858 2.77156 19.2361 2.77156Z" fill="#F0F0F0" transform="translate(4 27)" />
          </g>
          <g transform="translate(519 0)">
            <rect width="40" height="40" fill="#505050" fill-rule="evenodd" />
            <path d="M8.62695 1.95781L8.62695 9.63115L2.00293 5.78252L8.62695 1.95781Z" fill="#F0F0F0" transform="translate(14 12)" />
          </g>
          <g transform="translate(565 0)">
            <g>
              <rect width="40" height="17" fill="#505050" fill-rule="evenodd" />
              <path d="M9.43701 9.2415L1.76367 9.2415L5.6123 2.61748L9.43701 9.2415Z" fill="#F0F0F0" transform="translate(14 0.5)" />
            </g>
            <g transform="translate(0 23)">
              <rect width="40" height="17" fill="#505050" fill-rule="evenodd" />
              <path d="M1.76367 2.61748L9.43701 2.61748L5.58838 9.2415L1.76367 2.61748Z" fill="#F0F0F0" transform="translate(14 0.5)" />
            </g>
          </g>
          <g transform="translate(611 0)">
            <rect width="40" height="40" fill="#505050" fill-rule="evenodd" />
            <path d="M2.71387 9.49443L2.71387 1.82109L9.33789 5.66973L2.71387 9.49443Z" fill="#F0F0F0" transform="translate(14 12)" />
          </g>
        </g>
      </g>
    </g>
  </g>
</svg>